<svg xmlns="http://www.w3.org/2000/svg" width="1080" height="1080"><path fill="#fefefe" d="M493.875 55.938c.77.04 1.53.09 2.32.13 12.61.74 12.61.74 13.8 1.93 2.06.29 4.13.52 6.19.72 1.26.13 2.51.26 3.81.39l4 .39 7.82.78c1.16.12 2.32.23 3.52.35 2.66.37 2.66.37 3.66 1.37 1.41.27 2.82.49 4.23.69.87.12 1.74.24 2.63.37l5.47.75c5.06.72 9.79 1.69 14.67 3.19 2 .37 4 .71 6 1v2c.66.06 1.31.12 1.98.19 4.71.45 9.37.95 14.02 1.81v2c1.22.08 2.44.17 3.69.25 5.36.58 10.29 2.15 15.4 3.81 2.3.74 4.56 1.4 6.91 1.94v2c.54.07.54.07 3.26.44 2.66.4 5.16.84 7.74 1.56v2c.61.1 1.22.2 1.84.3 6.44 1.15 12.18 3.08 18.16 5.7v2c1.08.15 2.15.29 3.26.44 2.66.4 5.16.84 7.74 1.56v2h3v2c-3 1.69-5.54 2.38-8.94 2.82-.93.12-1.86.25-2.82.38-.97.12-1.93.24-2.92.36-1.92.25-3.84.5-5.76.76-.85.11-1.7.21-2.58.33-1.98.35-1.98.35-2.98 1.35-1.48.28-2.98.49-4.48.69-.91.12-1.83.24-2.77.37l-5.8.75c-4.88.66-9.3 1.49-13.95 3.19-1.61.35-3.24.66-4.87.94-4.63.89-8.76 2.31-13.13 4.06-1.91.74-3.82 1.47-5.74 2.19-.91.34-1.81.69-2.74 1.04-2.52.77-2.52.77-6.52.77v2c-2.9 1.26-4.79 2-8 2v2c-2.9 1.26-4.79 2-8 2v2c-2.64 1.46-3.89 2-7 2v2l-6 2v2l-6 2v2c-.31.15-.31.15-1.93.88-2.07 1.12-2.07 1.12-3.07 3.12-1.65 1.03-3.31 2.03-5 3-.72.56-1.44 1.12-2.18 1.69-1.82 1.31-1.82 1.31-3.82 1.31-.66 1.32-1.31 2.64-2 4h-2c-.32.99-.66 1.98-1 3-1.33.34-2.66.67-4 1-.32.99-.66 1.98-1 3-1.98 1.69-3.98 3.36-6 5-.66.99-1.31 1.98-2 3h-2l-.18 1.69c-1.16 3.3-3.22 5.03-5.82 7.31h-2c-.24.54-.49 1.07-.74 1.63-1.56 2.95-3.29 5.67-5.26 8.37h-2c-.1.62-.2 1.24-.31 1.88-.69 2.12-.69 2.12-3.69 4.12-.32.99-.66 1.98-1 3h-2c-.24.7-.49 1.41-.74 2.13-1.43 3.27-3.13 6.01-5.26 8.87h-2c-.66 1.98-1.31 3.96-2 6h-2c-.66 1.98-1.31 3.96-2 6h-2c-.14.79-.28 1.57-.43 2.38-.56 2.62-.56 2.62-1.57 4.62h-2c-.66 1.98-1.31 3.96-2 6h-2c-.14.95-.28 1.9-.43 2.88-.57 3.12-.57 3.12-1.57 5.12h-2c-.14.6-.28 1.2-.43 1.82a73 73 0 0 1-1.57 5.18h-2c-.14.77-.28 1.53-.43 2.32-.57 2.68-.57 2.68-1.57 5.68h-2c-.14.77-.28 1.53-.43 2.32-.57 2.68-.57 2.68-1.57 5.68h-2c-.66 2.97-1.31 5.94-2 9h-2c-.05.29-.05.29-.33 1.73-1.05 5.11-2.49 9.54-4.67 14.27-.32.99-.66 1.98-1 3h-2c-.05.32-.05.32-.33 1.94-.16.87-.31 1.73-.48 2.62-.15.85-.3 1.7-.45 2.57-.89 3.48-2.31 6.58-3.74 9.87-.92 2.69-1.74 5.41-2.56 8.13-1.31 4.36-2.66 8.67-4.44 12.87.55-.29 1.09-.57 1.65-.87.71-.37 1.43-.75 2.17-1.13.71-.37 1.41-.74 2.14-1.12 2.05-.88 2.05-.88 5.04-.88v-2c2.65-1.46 3.9-2 7-2v-2c2.32-.66 4.63-1.32 7-2v-2l5.88-3c1.09-.55 2.18-1.11 3.3-1.68 2.83-1.32 2.83-1.32 4.82-1.32v-2c1.06-.43 2.11-.86 3.19-1.31 2.36-1 4.37-2.03 6.57-3.37 2.24-1.32 2.24-1.32 5.24-1.32v-2c2.65-1.46 3.9-2 7-2v-2c4.59-2.39 9.03-4.51 14-6v-2l5.82-3c1.08-.55 2.16-1.11 3.27-1.68 2.91-1.32 2.91-1.32 5.91-1.32v-2c2.65-1.46 3.9-2 7-2v-2c1.16-.33 1.16-.33 7-2v-2l5 1c-.2.27-.2.27-1.24 1.65-.27.35-.27.35-1.63 2.17-.53.7-1.07 1.41-1.62 2.14-1.21 1.65-2.37 3.34-3.51 5.04h-2c-.66 1.65-1.31 3.3-2 5h-2c-.24.72-.49 1.45-.74 2.19-1.38 3.09-2.98 5.32-5.26 7.81h-2c-.66 1.65-1.31 3.3-2 5h-2c-.12.36-.12.36-.74 2.17-1.39 3.15-3.1 5.47-5.26 8.15-.7.88-1.4 1.76-2.12 2.67-.62.66-1.24 1.33-1.88 2.01h-2c-.1.6-.2 1.2-.31 1.82-.78 2.49-1.78 3.44-3.69 5.18-.32.66-.66 1.32-1 2h-2c-.66 1.32-1.31 2.64-2 4h-2c-.14.62-.28 1.24-.43 1.88-.57 2.12-.57 2.12-1.57 4.12h-2c-.25.72-.51 1.44-.77 2.18-1.3 2.99-2.87 5.37-4.79 8.01-3.36 4.66-3.36 4.66-4.44 6.81h-2c-.11.57-.22 1.15-.34 1.74-.72 2.48-1.73 4.33-3.09 6.51l-1.31 2.14c-.41.53-.83 1.07-1.26 1.61h-2c-.14.79-.28 1.57-.43 2.38-.57 2.62-.57 2.62-1.57 4.62h-2c-.12.42-.12.42-.74 2.5-1.44 4.03-3.28 7.72-5.26 11.5h-2c-.11.72-.22 1.43-.33 2.17-.71 3.02-1.8 5.4-3.23 8.15-.45.88-.91 1.76-1.38 2.67-.35.66-.7 1.33-1.06 2.01h-2c-.08.81-.16 1.61-.24 2.44-.96 4.54-2.79 8.38-4.76 12.56-.73 1.63-1.46 3.25-2.18 4.88-.16.36-.16.36-.98 2.18-.84 1.94-.84 1.94-1.84 4.94h-2c-.08.95-.16 1.9-.24 2.88-.59 4.22-2.15 7.89-3.82 11.79-.84 2.11-1.45 4.12-1.94 6.33h-2c-.1 1.12-.2 2.23-.31 3.38-.77 6.15-2.8 11.88-4.7 17.76-1.95 6.15-3.51 12.15-4.56 18.52-.43 2.34-.43 2.34-1.43 5.28-1.29 3.97-1.85 7.95-2.5 12.07-.4 2.44-.9 4.79-1.5 7.18-1.25 5.31-1.74 10.72-2.3 16.14-.59 5.57-.59 5.57-1.7 6.67-5.38 35.96-6.1 80.06 1.54 115.68.83 4.14 1.23 8.32 1.68 12.51.5 4.45 1.52 8.52 2.78 12.81.37 2.02.71 4.04 1 6.06.51 3.19 1.03 6.01 2.07 9.07 1.37 4.21 1.6 8.47 1.93 12.87h2c1.14 4.27 2 7.57 2 12h2c.67 2.97 1.32 5.94 2 9h2c2.26 4.94 4.41 9.81 6 15h2c1.47 2.65 2 3.9 2 7 1 .33 1.99.66 3 1 .34 1.34.67 2.67 1 4 1 .33 1.99.66 3 1 .69 2.06.69 2.06 1 4h2c1.51 1.46 1.51 1.46 3.13 3.38.27.31.27.31 1.63 1.9 1.24 1.72 1.24 1.72 1.24 3.72.6.27 1.2.53 1.81.81 2.26 1.23 3.54 2.43 5.26 4.32 4.84 5.01 10.68 9.74 16.93 12.87v2c.89.27 1.78.54 2.69.82 3.09 1.1 5.54 2.46 8.31 4.18 1 .33 1.99.66 3 1v2l8 2v2c.71.13 1.42.25 2.15.38 2.96.64 5.65 1.56 8.48 2.62 2.78 1.04 5.56 2.06 8.37 3v2c.57.05.57.05 3.44.32 3.97.48 7.45 1.59 11.21 2.92 3.29 1.06 6.63 1.67 10.03 2.3 2.32.46 2.32.46 5.58 1.46 5.82 1.56 11.77 2.22 17.74 3v2l3.69-.06c6.15 0 12.25.54 18.38 1.06 1.15.1 2.3.19 3.49.29 2.81.24 5.63.47 8.44.71v2h1.69a3346 3346 0 0 1 44.16.22l14.95.15c4.05.05 8.1.09 12.15.13 38.83.38 38.83.38 53.81.98.97.03 1.93.07 2.92.11 6.2.28 6.2.28 7.32 1.41 2.45.3 4.87.55 7.32.76.73.06 1.46.13 2.22.19 2.34.21 4.68.41 7.03.61l4.75.42c3.9.35 7.79.69 11.68 1.02v2c1.03.06 2.05.12 3.11.19 1.36.08 2.72.17 4.08.25l2.04.12c3.67.23 7.19.61 10.77 1.44v2l2.88-.12c6.95 0 13.6 1.85 20.12 4.12 2.66.71 5.33 1.36 8 2v2c.61.06 1.21.12 1.83.19.8.08 1.6.16 2.43.25.78.08 1.57.16 2.39.25 2.18.29 4.23.73 6.35 1.31v2c1.08.15 2.15.29 3.26.44 2.66.4 5.16.84 7.74 1.56v2c.89.06 1.78.13 2.69.19 6.06.83 11.69 3.52 17.31 5.81v2c.82.08 1.64.17 2.49.25 4.35.93 7.84 2.7 11.77 4.75.71.37 1.43.74 2.17 1.12 1.86.95 3.72 1.92 5.57 2.88.66.33 1.33.66 2 1v2c.87.08 1.74.17 2.63.25 3.87.86 6.17 2.47 9.37 4.75 1 .33 1.99.66 3 1v2c.57.11 1.13.23 1.71.34 2.61.75 4.69 1.87 7.05 3.22.79.46 1.59.92 2.42 1.38l1.82 1.06v2c1.33.33 2.64.66 4 1v2c.6.15 1.2.29 1.82.44 1.75.45 3.47.99 5.18 1.56.34.66.66 1.32 1 2 1.65.72 3.32 1.4 5 2v2c1.99.66 3.97 1.32 6 2v2c.71.25 1.41.5 2.13.75 3.27 1.42 6.02 3.12 8.87 5.25v2l5 2v2c.62.15 1.24.29 1.88.44 2.12.56 2.12.56 4.12 1.56v2l5 2v2l5 2v2c.73.25 1.45.5 2.19.75 3.09 1.38 5.33 2.98 7.81 5.25v2c.75.25 1.49.5 2.26.75 2.98 1.36 4.64 2.76 6.74 5.25v2l5 2v2c1.33.66 2.64 1.32 4 2v2c1.33.66 2.64 1.32 4 2v2c1.33.66 2.64 1.32 4 2v2c1.33.66 2.64 1.32 4 2v2c1.33.66 2.64 1.32 4 2v2c1.33.66 2.64 1.32 4 2v2c1.33.66 2.64 1.32 4 2v2c1.33.66 2.64 1.32 4 2v2c1 .33 1.99.66 3 1 .34 1.34.67 2.67 1 4 1 .33 1.99.66 3 1 4 4.46 4 4.46 4 7h2c1.45 1.65 1.45 1.65 3.12 3.95.61.83 1.22 1.66 1.84 2.51.63.88 1.27 1.76 1.92 2.67.31.43.31.43 1.89 2.59 9.23 12.69 9.23 12.69 9.23 15.28h2c1.47 2.65 2 3.9 2 7 1 .33 1.99.66 3 1 .13 3.38.13 3.38 0 7-2 2-2 2-5.21 2.29-4.05-.31-6.72-1.23-10.41-2.91l-1.82-.82c-1.86-.84-3.71-1.69-5.56-2.56-1.1-.51-2.2-1.03-3.33-1.56-2.14-.99-4.27-1.99-6.4-2.98-5.33-2.38-10.79-4.43-16.27-6.46v-2c-3.62-.66-7.25-1.32-11-2v-2c-3.62-.66-7.25-1.32-11-2v-2c-1.23-.14-2.47-.29-3.74-.44-2.82-.34-5.53-.76-8.26-1.56v-2c-.6-.06-1.2-.12-1.82-.18-.8-.08-1.6-.17-2.42-.26-.79-.08-1.58-.16-2.4-.24-2.18-.29-4.23-.74-6.36-1.32v-2c-.59-.06-1.18-.12-1.79-.18-4.11-.44-8.16-.9-12.21-1.82v-2c-.59-.06-1.18-.12-1.79-.18-4.11-.44-8.16-.9-12.21-1.82v-2c-.65-.06-1.3-.12-1.97-.18-4.71-.45-9.37-.96-14.03-1.82v-2c-.35-.02-.35-.02-2.13-.11-5.65-.38-11.03-1.06-16.55-2.33-8.04-1.83-16.12-2.71-24.32-3.56v-2c-.63.01-1.27.02-1.93.04-9.07.08-18.1-.35-27.15-.84-2.64-.14-5.27-.27-7.91-.4-1.67-.09-3.34-.17-5.02-.26-.79-.04-1.57-.08-2.39-.12-5.48-.3-5.48-.3-6.6-1.42-2.46-.12-4.9-.18-7.36-.2l-2.34-.03c-2.56-.03-5.11-.06-7.67-.08-1.77-.02-3.54-.05-5.31-.07l-14.01-.15c-4.75-.05-9.51-.11-14.27-.16-9.35-.11-18.69-.21-28.04-.31v2c-7.46.29-14.93.58-22.39.86-2.54.09-5.07.19-7.6.29-15.01.58-29.98 1.01-45.01.85v2c-.74.04-1.49.07-2.27.11-7.05.33-14.09.67-21.14 1.01-3.63.18-7.25.35-10.87.53-3.5.16-6.99.33-10.49.5-1.99.1-3.98.19-5.96.28l-3.64.18c-1.07.05-2.13.11-3.23.16-2.4.23-2.4.23-3.4 1.23-3.01.22-6.01.38-9.03.5l-2.83.12c-3.07.14-6.13.26-9.2.38l-6.28.27c-9.6.4-19.2.77-28.8 1.05-.75.02-1.5.04-2.28.07q-5.22.15-10.44.27c-1.21.03-2.41.06-3.65.1-1.05.02-2.09.04-3.16.07-2.33.17-2.33.17-3.33 1.17-11.01 1.55-22.3 1.15-33.4 1.14h-5.9c-4.12 0-8.23 0-12.35-.01-5.2 0-10.41 0-15.62.01h-17.94c-10.37.01-20.71-.14-31.07-.58l-2.9-.12c-.88-.04-1.76-.08-2.66-.13-.78-.03-1.56-.07-2.36-.1-1.8-.21-1.8-.21-2.8-1.21-2.79-.29-5.57-.52-8.37-.72-.84-.06-1.68-.12-2.54-.19-2.7-.2-5.39-.39-8.09-.59q-5.31-.375-10.62-.78c-.82-.06-1.65-.11-2.49-.17-5.77-.43-5.77-.43-6.89-1.55-1.77-.3-3.56-.54-5.34-.75-1.08-.13-2.16-.27-3.27-.4-1.14-.14-2.28-.27-3.45-.41-1.14-.14-2.28-.28-3.45-.42l-8.49-1.02v-2c-.53.02-.53.02-3.24.13-5.69.02-11.19-1.09-16.76-2.13v-2c-.73-.06-1.47-.12-2.23-.18-.97-.08-1.95-.17-2.95-.26-.97-.08-1.93-.16-2.92-.24-2.68-.29-5.26-.74-7.9-1.32v-2c-.28-.01-.28-.01-1.73-.08-6.47-.45-12.23-1.96-18.38-3.98-2.29-.74-4.54-1.39-6.89-1.94v-2c-1.05-.06-2.1-.12-3.18-.18-9.24-1.16-17.94-5.8-26.29-9.68-3.45-1.56-6.96-2.86-10.53-4.14v-2l-2.48-.25c-4.35-.93-7.84-2.69-11.76-4.75-.36-.18-.36-.18-2.18-1.11-1.86-.96-3.72-1.92-5.58-2.89-.65-.33-1.31-.66-2-1v-2c-.72-.1-1.44-.21-2.18-.32-3.07-.74-5.15-1.88-7.82-3.55-.41-.26-.41-.26-2.5-1.56-.82-.52-1.64-1.03-2.5-1.57-.46-.26-.46-.26-2.81-1.57l-2.19-1.43v-2c-.78-.14-1.56-.29-2.37-.44-2.62-.56-2.62-.56-4.63-1.56v-2c-.74-.27-1.48-.53-2.24-.81-2.65-1.14-4.61-2.28-6.76-4.19v-2c-.61-.14-1.23-.29-1.87-.44-2.13-.56-2.13-.56-4.13-1.56v-2c-.72-.24-1.44-.49-2.18-.75-3.09-1.37-5.33-2.97-7.82-5.25v-2l-1.68-.25c-3.07-.99-4.87-2.65-7.32-4.75-.99-.8-1.98-1.61-3-2.44-2.81-2.4-5.38-4.94-8-7.56a487 487 0 0 0-3.44-2.96c-5.03-4.38-9.78-9.04-14.5-13.75-1.51-1.49-3.02-2.97-4.54-4.46-.96-.95-1.92-1.91-2.89-2.87-.86-.86-1.73-1.71-2.62-2.59-1.97-2.32-2.45-3.48-3.01-6.37-2.06-1.25-2.06-1.25-4-2v-2l-3-1c-.33-1.33-.66-2.66-1-4l-3-1a95 95 0 0 1-4.68-5.94c-.42-.55-.83-1.1-1.26-1.66-3.06-4.13-3.06-4.13-3.06-6.4h-2c-1.62-2.26-1.62-2.26-3.43-5.25-3.37-5.49-3.37-5.49-5.29-7.98-1.28-1.77-1.28-1.77-1.28-3.77h-2c-1.46-2.64-2-3.89-2-7l-3-1c-1.06-1.97-2.04-3.98-3-6-1.57-2.59-3.17-5.16-4.79-7.73-1.21-2.27-1.21-2.27-1.21-5.27h-2c-1.46-2.64-2-3.89-2-7h-2c-1.25-2.9-2-4.79-2-8h-2c-1.25-2.9-2-4.79-2-8h-2c-.32-1.48-.32-1.48-2-9h-2c-.32-1.48-.32-1.48-2-9h-2c-.65-3.3-1.31-6.6-2-10h-2c-.07-.29-.07-.29-.48-1.76-1.73-6.09-3.94-11.8-6.53-17.57-.99-2.67-.99-2.67-.99-6.67 1.65.66 3.31 1.32 5 2v2h2c.23.56.46 1.12.69 1.69 1.68 2.95 3.86 4.99 6.31 7.31l1 1q.045-8.91.06-17.82c0-2.02.01-4.03.02-6.05.01-2.92.02-5.83.02-8.74.01-.89.01-1.78.02-2.7 0-5.95-.42-11.78-1.12-17.69h-2c-.19-1.16-.38-2.31-.58-3.51-.26-1.53-.53-3.07-.79-4.61-.13-.76-.25-1.52-.38-2.31-.76-4.36-1.83-8.36-3.25-12.57-.39-2.26-.75-4.53-1.06-6.81-.83-6.08-.83-6.08-1.94-7.19-.35-2.16-.65-4.33-.93-6.5-.54-3.99-1.09-7.9-2.07-11.81-1.27-5.26-1.74-10.64-2.3-16.01-.59-5.58-.59-5.58-1.7-6.68-.28-2.43-.52-4.84-.71-7.28-.04-.36-.04-.36-.19-2.21-.27-3.13-.53-6.26-.79-9.39-.19-2.28-.39-4.56-.59-6.84-.05-.71-.11-1.42-.17-2.16-.43-5-.43-5-1.55-6.12-.21-1.98-.37-3.97-.5-5.96-.08-1.27-.16-2.53-.24-3.83-.09-1.38-.17-2.76-.26-4.15-.08-1.4-.17-2.8-.26-4.2-.64-10.27-1.09-20.54-1.39-30.83-.03-1-.07-2.01-.1-3.04-.02-.87-.05-1.74-.07-2.64-.18-2.35-.18-2.35-.68-4.15-.59-2.63-.62-5.03-.62-7.73-.01-1.11-.01-2.21-.01-3.36v-15.12c.01-3.97 0-7.95 0-11.93v-11.17c0-.55 0-.55.01-3.36v-2.95c.11-2.36.52-4.3 1.12-6.58.14-1.43.23-2.86.29-4.3.03-.84.07-1.68.11-2.55.03-.91.07-1.81.1-2.74.05-.94.09-1.89.13-2.86.13-3.01.25-6.03.37-9.05 1.41-33.9 1.41-33.9 3-35.5.29-2.2.52-4.41.72-6.62.04-.33.04-.33.19-2.01.21-2.12.4-4.24.59-6.37.26-2.79.52-5.58.79-8.37.11-1.25.22-2.49.34-3.78.37-2.85.37-2.85 1.37-3.85.27-1.33.47-2.67.65-4.01.12-.84.24-1.67.36-2.53.12-.89.24-1.79.37-2.71 1.15-8.04 2.6-15.87 4.62-23.75h2c.04-.33.04-.33.19-2.01.83-8.77.83-8.77 1.81-12.99h2c.03-.57.06-1.14.08-1.73.59-8.36 3.08-15.88 5.78-23.78 1.75-5.11 3.08-10.19 4.14-15.49h2c.09-1.26.17-2.51.26-3.81.62-5.68 2.3-11.03 4.74-16.19l2-1v4h2c.13.79.25 1.57.37 2.38 1.41 8.84 1.41 8.84 2.63 13.12 1.2 4.19 1.83 8.37 2.5 12.66.5 2.84.5 2.84 1.5 6.34 1.19 4.15 1.82 8.28 2.44 12.54.56 2.96.56 2.96 1.56 5.93 1.39 4.21 1.86 8.43 2.44 12.81.57 3.24 1.53 6.12 2.56 9.22.38 2.14.72 4.29 1 6.44.51 3.52 1.05 6.72 2.07 10.12 1.38 5.08 1.61 10.21 1.93 15.44h2c.15-1.24.29-2.47.44-3.75.35-2.81.77-5.52 1.56-8.25h2c.09-.93.17-1.85.26-2.81.73-5.32 2.84-10.2 4.74-15.19l1-3h2c.15-1.09.29-2.18.44-3.31.56-3.69.56-3.69 1.56-6.69h2c.12-.86.23-1.71.34-2.6.69-3.53 1.8-6.47 3.23-9.77.45-1.06.91-2.12 1.38-3.21.35-.8.7-1.6 1.05-2.42h2c.24-1.29.47-2.58.71-3.92 1.18-5.31 3.41-9.66 6.05-14.39.9-1.67 1.8-3.34 2.71-5q.645-1.2 1.32-2.43c1.6-2.97 3.1-5.98 4.59-9.01 2.07-4.18 4.25-8.23 6.62-12.25h2c.15-.78.29-1.56.44-2.37.56-2.63.56-2.63 1.56-4.63h2c.05-.26.05-.26.26-1.58 1.04-3.36 2.84-6.19 4.68-9.17l1.09-1.82c.94-1.51 1.95-2.98 2.97-4.43h2l2-6h2l2-5h2c.15-.62.29-1.24.44-1.87.56-2.13.56-2.13 1.56-4.13h2c.25-.72.5-1.44.76-2.18 1.37-3.09 2.97-5.33 5.24-7.82h2c.06-.32.06-.32.32-1.94.22-.68.45-1.36.68-2.06 1-.33 1.99-.66 3-1 .7-1.65 1.36-3.32 2-5 2.15-2.9 4.46-5.45 7-8 .86-1.06 1.72-2.12 2.57-3.18.4-.47.4-.47 2.43-2.82h2l2-4h2l2-4h2l2-4h2l2-4h2l2-4h2c.34-.99.66-1.98 1-3 1.49-1.24 1.49-1.24 3.32-2.44 2.27-1.53 4.04-2.91 6-4.87.55-.56 1.11-1.11 1.68-1.69h2v-2c1.68-1.51 1.68-1.51 3.88-3.12.72-.54 1.44-1.08 2.18-1.64 1.94-1.24 1.94-1.24 3.94-1.24.34-.99.66-1.98 1-3 1-.33 1.99-.66 3-1q1.53-1.47 3-3c1.77-1.4 3.57-2.78 5.38-4.12.47-.35.47-.35 2.84-2.14 2.72-1.7 4.63-2.36 7.78-2.74v-2c1.98-.66 3.97-1.32 6-2v-2c2.65-1.46 3.9-2 7-2v-2c2.65-1.46 3.9-2 7-2v-2c2.91-1.25 4.8-2 8-2v-2c2.91-1.25 4.8-2 8-2v-2c2.91-1.25 4.8-2 8-2v-2c2.98-.66 5.94-1.32 9-2v-2c.28-.09.28-.09 1.69-.55 5.79-1.9 11.49-3.97 17.17-6.16 2.04-.78 4.09-1.54 6.14-2.29.94-.34 1.87-.69 2.83-1.04 6.42-2.28 12.36-3.66 19.17-3.96v-2l11-1v-2c.65-.1.65-.1 3.91-.62 1.68-.27 3.35-.54 5.03-.82.85-.13 1.7-.26 2.58-.4.4-.07.4-.07 2.45-.4.75-.12 1.5-.24 2.27-.37 1.76-.39 1.76-.39 2.76-1.39 1.92-.28 3.83-.51 5.76-.72 1.16-.12 2.33-.25 3.53-.38 2.48-.27 4.95-.53 7.43-.79 1.17-.13 2.33-.26 3.54-.39 1.07-.11 2.15-.23 3.26-.34 2.48-.38 2.48-.38 3.48-1.38 4.53-.55 9.08-.78 13.63-1.06.35-.02.35-.02 2.13-.13 25.03-1.53 50.09-1.3 75.12.13m-95.88 29.06v2c-1.07.06-2.14.12-3.25.19-1.44.08-2.87.17-4.31.25l-2.13.12c-4.48.27-8.87.75-13.31 1.44v2l-2.87-.12c-4.83-.02-9.43 1.06-14.13 2.12v2c-.61.04-1.23.08-1.87.12-5.11.39-9.6 1.17-14.41 2.92-3.73 1.32-7.5 2.48-11.28 3.65l-4.25 1.32c-1.05.33-2.1.66-3.19.99v2c-.6.09-1.21.18-1.83.26-5.83.98-10.51 2.67-15.72 5.45-5.95 3.15-12.25 5.66-18.45 8.29v2c-.71.12-1.43.23-2.17.35-2.97.69-5.35 1.72-8.07 3.09-.88.43-1.75.86-2.65 1.31-2.11 1.25-2.11 1.25-3.11 3.25-2 .67-4 1.34-6 2-.33.66-.65 1.32-1 2-3.08 1.86-6.12 3.59-9.37 5.13-1.63.87-1.63.87-2.63 2.87-2.06 1.13-2.06 1.13-4 2v2l-5 2v2c-.46.14-.46.14-2.81.82-3.22 1.2-3.9 1.83-6.19 4.18-2.88 2.34-5.78 4.64-8.69 6.94-.76.68-1.52 1.36-2.31 2.06v2c-.59.26-1.18.53-1.78.8-2.33 1.27-3.78 2.59-5.59 4.52-2.15 2.22-4.22 4.16-6.63 6.12-3.14 2.68-5.71 5.56-8.38 8.7-1.62 1.86-1.62 1.86-4.05 4.24-1.57 1.62-1.57 1.62-1.57 3.62-.28.11-.28.11-1.74.63-3.08 1.87-4.31 4.37-6.26 7.37-1.66 1.67-3.33 3.34-5 5-7 8.37-7 8.37-7 11h-2c-1.62 2.27-1.62 2.27-3.43 5.25-3.37 5.49-3.37 5.49-5.29 7.99-1.28 1.76-1.28 1.76-1.28 3.76h-2c-.32 1.32-.65 2.64-1 4h-2c-1 1.79-2 3.58-3 5.38-.27.5-.27.5-1.68 3.02-1.32 2.6-1.32 2.6-1.32 4.6h-2c-.43.89-.86 1.78-1.31 2.69-1.69 3.31-1.69 3.31-3.37 6-1.32 2.31-1.32 2.31-1.32 5.31h-2c-1.46 2.65-2 3.9-2 7h-2c-1.25 2.91-2 4.8-2 8h-2c-1 2.1-2 4.21-3 6.32-.55 1.17-1.11 2.34-1.68 3.55-1.32 3.13-1.32 3.13-1.32 6.13h-2c-1 2.27-2 4.54-3 6.82-.28.64-.57 1.28-.86 1.94-1.27 2.92-2.14 5.03-2.14 8.24h-2v3c3.61-1.58 6.36-3.8 9.38-6.31.97-.8 1.93-1.6 2.93-2.43q2.34-1.95 4.68-3.93c3.86-3.25 3.86-3.25 6.01-4.33v-2c.54-.25 1.08-.49 1.63-.75 4.25-2.23 7.69-4.22 10.37-8.25 1-.33 1.99-.66 3-1 .81-.97 1.61-1.94 2.44-2.94 2.24-2.67 3.39-3.88 6.56-5.06v-2c.29-.13.29-.13 1.76-.81 2.3-1.22 4.27-2.49 6.24-4.19v-2c.27-.12.27-.12 1.63-.75 3.97-2.09 7.48-4.36 10.66-7.54 2.93-2.92 5.99-5.6 9.15-8.27l1.66-1.42c3.48-2.95 7.09-5.5 10.9-8.02 1.69-1.64 3.36-3.31 5-5 .77-.55 1.53-1.11 2.32-1.68.55-.44 1.11-.87 1.68-1.32v-2c1.16-.33 1.16-.33 7-2-2.11 3.68-4.46 7.07-7.01 10.45-.99 1.55-.99 1.55-.99 3.55h-2c-.32.99-.32.99-2 6h-2c-.32.99-.32.99-2 6h-2c-.38.72-.77 1.43-1.17 2.16-4.76 8.76-4.76 8.76-7.2 12.9-1.63 2.94-1.63 2.94-1.63 4.94h-2c-1 1.94-2 3.87-3 5.82-.55 1.07-1.11 2.15-1.68 3.26-1.32 2.92-1.32 2.92-1.32 5.92h-2c-.47 1.15-.94 2.29-1.42 3.48-.63 1.53-1.26 3.06-1.89 4.58-.31.76-.61 1.51-.93 2.28-.31.75-.62 1.49-.93 2.26-.15.37-.15.37-.92 2.24-.85 2.03-1.74 4.03-2.64 6.03-1.27 3.13-1.27 3.13-1.27 6.13h-2l-.55 1.94c-1.3 4.5-2.7 8.76-4.63 13.03-1.54 3.84-2.64 7.84-3.83 11.81-.85 2.77-1.77 5.49-2.73 8.22-1.06 3.1-1.58 5.69-1.26 9h-2c-.33 1.73-.67 3.46-1 5.19-.18.96-.37 1.93-.56 2.92-.4 2.69-.51 5.18-.44 7.89h-2c-1.23 7.73-2.27 15.17-2 23h-2c-1.89 15.75-2.22 31.41-2.24 47.25-.01.97-.01 1.95-.02 2.95-.06 13.39.67 26.5 2.26 39.8h1c.34-1.75.68-3.5 1-5.25.19-.97.38-1.95.57-2.95.43-2.8.43-2.8.43-6.8h2c.19-.77.37-1.54.56-2.34 2.3-9.55 2.3-9.55 4.13-14.16 1.31-3.5 1.31-3.5 1.31-7.5h2l2-10h2l2-9h2c1.26-2.9 2-4.79 2-8h2c1.26-2.9 2-4.79 2-8h2c.27-.53.54-1.06.81-1.61 1.06-2.13 2.13-4.26 3.19-6.39.34-.72.67-1.45 1.01-2.2.99-1.8.99-1.8 2.99-2.8 1.58-2.62 2-3.87 2-7 1-.33 1.99-.66 3-1l1-3c.25-.23.25-.23 1.5-1.44 1.5-1.56 1.5-1.56 1.94-3.62.19-.64.37-1.28.56-1.94.3-.14.3-.14 1.82-.87 2.18-1.13 2.18-1.13 4-3.88 2.28-3.39 4.61-5.46 7.79-7.95.23-.21.23-.21 1.39-1.3v-2c.53-.23 1.05-.46 1.59-.7 3.23-1.74 6.1-3.93 9.04-6.11 5.53-4.04 11.08-7.43 17.37-10.19v-2c.95-.14 1.9-.29 2.88-.44 3.13-.56 3.13-.56 5.12-1.56-.33 2.97-.65 5.94-1 9h-2c-2.28 8.43-2.28 8.43-2 13h-2c-.33 1.56-.67 3.13-1 4.69-.09.44-.09.44-.56 2.64-.42 2.61-.51 5.03-.44 7.67h-2c-1.2 7.06-2.28 13.84-2 21h-2c-3.11 27.87-3.92 57.18 0 85l1 1c.3 1.41.54 2.83.76 4.26.13.85.26 1.7.4 2.58.13.9.27 1.8.41 2.72.14.91.27 1.81.42 2.74.34 2.23.68 4.47 1.01 6.7h2c.07.75.13 1.5.19 2.27.08.98.17 1.97.25 2.98.08.98.16 1.95.25 2.96.27 2.36.67 4.51 1.31 6.79h2c.08.62.08.62.44 3.75.35 2.82.77 5.52 1.56 8.25h2c.08.55.08.55.44 3.32.56 3.68.56 3.68 1.56 6.68h2l2 10h2l2 8h2l2 8h2c.33 1.16.33 1.16 2 7h2l2 6h2c.14.38.14.38.82 2.32 1.15 2.59 2.15 3.78 4.18 5.68.54-.47 1.07-.94 1.61-1.42.71-.63 1.42-1.25 2.15-1.89l2.1-1.86c2.14-1.83 2.14-1.83 4.41-3.43.57-.46 1.15-.92 1.73-1.4v-2c1-.33 1.99-.66 3-1 1.22-1.45 1.22-1.45 2.38-3.25 1.52-2.33 3.02-4.14 5.01-6.13 5.74-5.75 17.61-18.01 17.61-26.62h2c1.47-2.64 2-3.89 2-7h2c1.26-2.9 2-4.79 2-8h2l2-9h2c1.2-3.87 2-6.91 2-11h2c.1-.43.1-.43.59-2.6 2.23-9.8 2.23-9.8 3.48-13.9 1.21-4.52 1.82-9.07 2.47-13.7.46-2.8.46-2.8 1.46-4.8.16-1.37.25-2.75.32-4.13.04-.81.09-1.61.13-2.44l.12-2.55c.02-.43.02-.43.13-2.58.1-2.1.21-4.2.3-6.3h3c.06.75.12 1.51.17 2.28.25 3.39.51 6.77.77 10.16.09 1.18.18 2.37.27 3.59.08 1.12.17 2.25.26 3.41l.24 3.15c.29 2.41.29 2.41 1.29 3.41.3 2.51.53 4.99.72 7.5.07.75.13 1.5.19 2.28.27 3.22.53 6.45.79 9.68.19 2.34.39 4.69.59 7.04.05.74.11 1.47.17 2.23.43 5.16.43 5.16 1.54 6.27.3 2.51.53 4.99.72 7.5.07.75.13 1.5.19 2.28.27 3.22.53 6.45.79 9.68.19 2.34.39 4.69.59 7.04.05.74.11 1.47.17 2.23.43 5.16.43 5.16 1.54 6.27.31 2.59.55 5.16.76 7.76.06.77.13 1.55.2 2.35.2 2.48.41 4.97.61 7.45l.42 5.05c.34 4.13.68 8.26 1.01 12.39h2c.02-.44.02-.44.08-2.7l.3-10.15.12-4.34c.82-29.12.82-29.12 2.5-30.81.29-2.13.52-4.26.72-6.4.13-1.3.26-2.61.39-3.95l.39-4.15c.26-2.7.52-5.39.79-8.09.11-1.2.22-2.41.34-3.65.37-2.76.37-2.76 1.37-3.76.41-2.22.75-4.45 1.07-6.68.09-.62.09-.62.53-3.7.36-3.25.48-6.36.4-9.62h2c.1-.58.1-.58.59-3.51.26-1.53.53-3.07.79-4.61.13-.76.25-1.52.38-2.31.75-4.36 1.81-8.37 3.24-12.57.27-1.61.48-3.24.63-4.87.04-.39.04-.39.23-2.37.05-.58.09-1.16.14-1.76h2c.19-.77.37-1.54.56-2.34 2.3-9.55 2.3-9.55 4.13-14.16 1.31-3.5 1.31-3.5 1.31-7.5h2c.67-3.63 1.32-7.26 2-11h2c.16-.6.32-1.21.49-1.83 1.57-5.64 3.59-10.67 6.33-15.84 1.8-3.53 3.18-6.33 3.18-10.33h2c1.26-2.9 2-4.79 2-8h2c1.26-2.9 2-4.79 2-8h2c1.26-2.9 2-4.79 2-8h2c1.47-2.64 2-3.89 2-7h2c1.53-2.98 2.94-5.82 4-9l-7 2v2c-.78.15-1.56.29-2.37.44-2.62.56-2.62.56-4.63 1.56v2c-2.63.66-5.27 1.32-8 2v2c-.86.26-1.72.52-2.61.78-3.5 1.26-6.4 2.86-9.57 4.78-5.52 3.35-5.52 3.35-8.82 4.44v2c-2.66.67-5.33 1.34-8 2 .33-4.29.67-8.58 1-13h2c.2-1.22.39-2.43.59-3.69.26-1.62.53-3.25.79-4.87.13-.8.25-1.6.38-2.42.79-4.8 1.84-9.36 3.24-14.02.35-1.51.69-3.04 1-4.56.56-2.6 1.19-4.97 2.07-7.5 1.17-3.66 1.54-7.12 1.93-10.94h2c.19-.77.37-1.54.56-2.34 2.3-9.55 2.3-9.55 4.13-14.16 1.31-3.5 1.31-3.5 1.31-7.5h2c.67-3.63 1.32-7.26 2-11h2c1.32-3.62 2-6.09 2-10h2c.67-3.3 1.32-6.6 2-10h2c.67-2.97 1.32-5.94 2-9h2c.67-2.64 1.32-5.28 2-8h2c.67-2.64 1.32-5.28 2-8h2c.67-2.64 1.32-5.28 2-8h2c.67-2.64 1.32-5.28 2-8h2c1.47-2.64 2-3.89 2-7h2c.44-.88.87-1.77 1.32-2.68 1.68-3.32 1.68-3.32 3.37-6.07 1.31-2.25 1.31-2.25 1.31-4.25h2c.52-.93 1.04-1.85 1.57-2.81 3.4-5.95 6.94-11.98 11.15-17.39 1.28-1.8 1.28-1.8 1.28-3.8h2c.33-1.32.67-2.64 1-4h2c1.51-1.68 1.51-1.68 3.13-3.87l1.63-2.18c1.24-1.95 1.24-1.95 1.24-3.95h2c.11-.28.11-.28.63-1.68 1.37-2.32 1.37-2.32 4.31-4.76 3.07-2.56 3.07-2.56 4.4-4.86 2.02-3.28 4.58-5.76 7.35-8.38 1.83-1.74 3.58-3.49 5.31-5.32v-2c.3-.13.3-.13 1.77-.8 2.32-1.25 4.03-2.62 5.99-4.38.34-.31.34-.31 2.08-1.87.72-.64 1.43-1.29 2.16-1.95l4.32-3.81 1.92-1.71c1.76-1.48 1.76-1.48 4.76-3.48v-2c.71-.25 1.41-.49 2.13-.75 3.27-1.42 6.02-3.12 8.87-5.25v-2c1.99-.66 3.97-1.32 6-2v-2c2.31-.66 4.63-1.32 7-2v-2c2.31-.66 4.63-1.32 7-2v-2l8-2v-2l8-2v-2c.5-.16.5-.16 3-1h-3v-2c-.57-.08-1.14-.17-1.72-.26-2.57-.39-5.14-.78-7.71-1.18-.45-.06-.45-.06-2.72-.4-.86-.14-1.71-.27-2.59-.4-.4-.06-.4-.06-2.4-.37-1.86-.39-1.86-.39-2.86-1.39-1.83-.28-3.68-.51-5.53-.72-1.12-.12-2.24-.25-3.39-.38-.59-.07-.59-.07-3.58-.4q-3.48-.375-6.96-.78c-.52-.06-.52-.06-3.14-.34-2.4-.38-2.4-.38-3.4-1.38-17.66-2.74-35.88-2.32-53.71-2.26-3.57.01-7.14.01-10.71-.01-17.27-.04-34.38.53-51.58 2.27m27 273 1 2Z"/><path fill="#f5f5f5" d="m613 139 .18 1.93c.09.83.17 1.66.26 2.51.08.82.16 1.64.24 2.49C614 148 614 148 615 149c.29 2.43.52 4.84.72 7.28.03.37.03.37.19 2.21.27 3.13.53 6.26.79 9.39.19 2.28.38 4.56.58 6.84.06.71.12 1.43.17 2.16.44 5.01.44 5.01 1.55 6.12.23 1.92.4 3.85.54 5.79.08 1.16.17 2.33.26 3.54.09 1.23.17 2.46.26 3.73.05.62.05.62.28 3.75L621 209l12 2v2c1.24.14 2.48.29 3.75.44 2.82.35 5.52.76 8.25 1.56v2c.54.07.54.07 3.25.44 2.67.4 5.16.84 7.75 1.56v2c.97.08 1.94.17 2.94.25 4.03.56 7.39 2.07 11.04 3.81C672 226 672 226 675 227v2c.93.14 1.86.29 2.81.44C681 230 681 230 684 231v2c.76.14 1.53.29 2.31.44C689 234 689 234 692 235v2c.76.14 1.53.29 2.31.44C697 238 697 238 700 239v2c6.85 1.4 6.85 1.4 10 0l1-3c1.33-.33 2.67-.67 4-1l1-3c2.06-.69 2.06-.69 4-1v-2c1.68-1.51 1.68-1.51 3.88-3.12.71-.54 1.43-1.08 2.17-1.64C728 225 728 225 730 225v-2c.6-.27 1.2-.54 1.81-.81 2.23-1.21 3.44-2.37 5.19-4.19 5.42-5 5.42-5 9-5 .1-.29.1-.29.62-1.75 1.88-3.07 4.37-4.34 7.38-6.25q1.515-1.485 3-3c1.17-.92 2.35-1.82 3.56-2.69.6-.43 1.2-.87 1.82-1.32C764 197 764 197 766 197l1-3c1.33-.33 2.67-.67 4-1l1-3c1.52-1.39 1.52-1.39 3.38-2.69q.9-.645 1.83-1.32C779 185 779 185 782 185v-2c3.97-1.81 7.69-2.42 12-3l1-1c6.78-.48 12.67 1.84 19 4v2c.64.1 1.28.21 1.94.31.68.23 1.36.46 2.06.69l1 3c2.06 1.19 2.06 1.19 4 2v2l4 2v2l4 2v2l4 2v2l4 2v2l4 2v2l4 2v2l4 2v2l4 2v2l4 2v2l4 2v2l4 2v2l4 2v2l4 2v2l4 2v2l4 2v2l4 2v2l4 2v2l4 2v2l4 2v2l4 2v2l3 1a184 184 0 0 1 3.53 4.31c2.11 2.43 4.58 4.33 7.11 6.3C918 286 918 286 918 289h2c1.81 3.97 2.42 7.69 3 12l1 1c.3 4.57-.45 8.27-1.81 12.62-.34 1.11-.68 2.22-1.02 3.36-1.1 2.83-2.11 4.81-4.17 7.02h-2c-.1.64-.21 1.28-.31 1.94-.23.68-.46 1.36-.69 2.06l-3 1c-.14.58-.29 1.15-.44 1.75-.77 3.11-2.49 4.83-4.56 7.25-3.89 4.78-3.89 4.78-5 7h-2c-.12.27-.12.27-.75 1.62A67 67 0 0 1 893 356h-2c-.29.8-.58 1.61-.88 2.44C889 361 889 361 887 362c-1.13 2.06-1.13 2.06-2 4h-2c-.12.36-.12.36-.75 2.17-1.39 3.14-3.09 5.47-5.25 8.14-.7.89-1.4 1.77-2.12 2.68-.62.66-1.24 1.33-1.88 2.01h-2c-.1.64-.21 1.28-.31 1.94-.23.68-.46 1.36-.69 2.06l-3 1c-.68 2-1.35 4-2 6-.5.33-.5.33-3 2-1.51 4.19-.6 6.95 1 11h2l2 8h2c1.34 3 2.68 6 4 9 .41.93.83 1.86 1.25 2.81.75 2.19.75 2.19.75 6.19h2c1.5 3.37 2 5.2 2 9h2c.18.63.36 1.26.55 1.91 1.81 6.15 3.83 12.15 6.27 18.08 1.89 4.71 2.73 8.95 3.18 14.01h2l1 8 26 2v2l2-.03c6.93-.07 13.73.31 20.62.97 1 .08 1.99.17 3.01.26 7.24.67 7.24.67 8.37 1.8 2.34.27 4.66.47 7 .65l4.38.36 6.9.54c17.48 1.33 17.48 1.33 25.72 5.45v2c.54.06 1.07.12 1.62.19 4.17 1.42 7.38 4.26 9.76 7.93.62 1.88.62 1.88.62 4.88h2c1.09 3.28 1.13 5.69 1.13 9.15 0 1.29 0 2.57.01 3.9-.01 1.43-.01 2.86-.01 4.29v4.51c.01 4.08.01 8.17 0 12.25 0 4.27 0 8.54.01 12.81 0 7.18 0 14.35-.01 21.52-.01 8.3 0 16.59 0 24.89q.015 10.68 0 21.36c0 4.25 0 8.51.01 12.76 0 4 0 8-.01 12v4.4c.01 2.01 0 4.01 0 6.01v3.4C1013 667 1013 667 1012 670h-2c-.03.35-.03.35-.19 2.12-1.39 4.95-4.61 8.08-8.81 10.88h-3v2c-.71.2-1.42.41-2.15.62l-2.79.82c-.46.13-.46.13-2.77.81C988 688 988 688 987 689c-3.44.52-6.91.76-10.38 1.06-.95.09-1.9.18-2.88.28-6.6.59-13.12.77-19.74.66v2c-3.6.34-7.21.67-10.81 1-1.01.1-2.01.19-3.05.29-6.73.61-13.38.83-20.14.71v2l-26 2-1 8h-2c-.06 1.01-.12 2.02-.19 3.06-1.17 9.55-5.38 19.01-8.81 27.94l-1 3h-2c-.14.93-.29 1.86-.44 2.81C878 747 878 747 877 750h-2c-.08.99-.16 1.98-.25 3-.53 3.84-1.97 6.82-3.81 10.2C870 765 870 765 869 768h-2l-2 8h-2c-2.43 6.98-2.43 6.98-1.19 9.94C863 788 863 788 864.56 789.5c1.44 1.5 1.44 1.5 1.88 3.56.56 1.94.56 1.94 2.62 3.19.64.25 1.28.5 1.94.75v3l3 1c1.66 1.95 3.18 3.87 4.69 5.94.41.55.83 1.1 1.26 1.67 3.05 4.12 3.05 4.12 3.05 6.39l3 1 1 3 2.06 2.06L891 823v2h2l2 5h2l2 5h2c.27.6.54 1.2.81 1.81 1.21 2.23 2.37 3.44 4.19 5.19 5 5.42 5 5.42 5 9q.885.36 1.8.72c2.67 1.55 3.78 3.14 5.45 5.72l1.58 2.37C921 862 921 862 921 865c-5.75-.88-5.75-.88-8-2v-2c-.6-.14-1.2-.29-1.81-.44-1.75-.45-3.48-.99-5.19-1.56v-2l-6-2v-2c-.95-.14-1.9-.29-2.88-.44C894 852 894 852 892 851v-2c-.78-.14-1.57-.29-2.38-.44C887 848 887 848 885 847v-2c-.76-.14-1.53-.29-2.31-.44C880 844 880 844 877 843v-2c-.71-.12-1.42-.24-2.15-.36-3.02-.68-5.63-1.68-8.47-2.89-1.06-.45-2.12-.9-3.21-1.36a386 386 0 0 1-8.55-3.89c-9.7-4.44-19.87-7.63-30.06-10.76-3.46-1.06-6.87-2.18-10.25-3.49-2.8-1.06-5.36-1.79-8.31-2.25v-2c-.65-.06-.65-.06-3.93-.38-4.84-.53-9.51-1.5-14.26-2.62-4.92-1.14-9.81-2.23-14.81-3v-2c-1.06-.06-2.12-.12-3.22-.18-20.14-1.18-20.14-1.18-21.78-2.82-1.52-.22-3.05-.37-4.57-.5-.97-.08-1.94-.16-2.94-.25l-3.18-.25c-1.06-.09-2.13-.17-3.23-.26-10.68-.84-21.37-1.34-32.08-1.74v-2c-1.09 0-2.17.01-3.29.01-10.41.04-20.81.07-31.22.09-5.35.01-10.69.03-16.04.05-26.23.11-52.29-.27-78.45-2.15v-2c-.64.01-1.28.02-1.94.04-5.15.05-9.99-.16-15.06-1.04v-2h4v-2c3.08-.84 6.17-1.67 9.25-2.5q1.305-.36 2.64-.72c.85-.23 1.69-.45 2.56-.69.78-.21 1.55-.42 2.35-.63 2.2-.46 2.2-.46 6.2-.46v-2c.62-.24 1.23-.48 1.87-.73 20.25-8.02 20.25-8.02 28.13-13.27h3v-2c2.65-1.46 3.89-2 7-2l1-3c1.55-.9 3.11-1.79 4.7-2.63 5.89-3.5 11.74-7.76 16.54-12.65C647 744 647 744 649 744v-2c1.61-1.55 1.61-1.55 3.75-3.31 3.17-2.69 5.73-5.38 8.25-8.69l5-5c5.64-6.28 5.64-6.28 7-9h2l1-3h2c.11-.57.23-1.14.35-1.73.71-2.48 1.72-4.33 3.09-6.52.43-.71.86-1.41 1.31-2.14.41-.53.82-1.06 1.25-1.61h2c.07-.3.07-.3.44-1.81.45-1.75.99-3.48 1.56-5.19h2l2-6h2c.08-.83.16-1.65.25-2.5.73-3.4 1.94-6.01 3.56-9.07 2.43-4.98 4.26-10.24 6.19-15.43h2c.14-1.24.29-2.48.44-3.75.35-2.82.76-5.52 1.56-8.25h2c.06-.74.12-1.47.18-2.23.09-.98.17-1.95.26-2.96.08-.96.16-1.92.24-2.92.3-2.68.75-5.26 1.32-7.89h2l.18-3.04c.42-6.8.84-13.6 1.32-20.4.07-1.05.14-2.1.22-3.18C716 604 716 604 717 603c.1-1.84.13-3.69.13-5.53 0-.56 0-.56.01-3.4-.01-1.18-.01-2.35-.02-3.57.01-1.18.01-2.36.02-3.57 0-1.12-.01-2.24-.01-3.4v-3.14C717 578 717 578 716 577c-.23-1.55-.39-3.11-.54-4.66-.08-.96-.17-1.92-.26-2.91-.09-1.01-.17-2.02-.26-3.05-.05-.5-.05-.5-.28-2.99-.46-5.15-.77-10.22-.66-15.39h-2c-1.19-5.38-2.29-10.45-2-16h-2c-1.14-4.27-2-7.56-2-12h-2c-1.01-2.6-2.01-5.21-3-7.81-.29-.74-.57-1.48-.87-2.24l-.82-2.16c-.12-.32-.12-.32-.76-1.98C698 504 698 504 698 501h-2c-1.26-2.91-2-4.8-2-8h-2l-2-6h-2c-1.46-2.65-2-3.89-2-7h-2c-1.51-1.86-1.51-1.86-3.12-4.31l-1.64-2.43C678 471 678 471 678 468l-3-1v-2h-2c-.23-.56-.45-1.11-.69-1.69-1.31-2.3-2.79-3.88-4.7-5.7-2.08-2.08-3.98-4.28-5.92-6.49a94.5 94.5 0 0 0-11.26-10.74c-.23-.23-.23-.23-1.43-1.38v-2c-.36-.11-.36-.11-2.19-.69-2.81-1.31-2.81-1.31-5.04-3.56-3.1-3.08-6.39-5.51-9.96-8-.63-.45-1.25-.89-1.9-1.35-4.59-3.24-4.59-3.24-6.91-4.4v-2c-.6-.14-1.2-.29-1.81-.44-1.75-.45-3.48-.99-5.19-1.56v-2c-.74-.1-1.49-.21-2.25-.31-3.03-.76-4.29-1.8-6.75-3.69-3.9-2.17-7.62-4.04-12-5v-2c-.57-.11-1.14-.22-1.72-.33-5.12-1.05-9.52-2.53-14.28-4.67-1.32-.37-2.65-.73-4-1v-2l-2.01-.18c-8.77-.84-8.77-.84-12.99-1.82v-2c-.83-.06-1.67-.12-2.53-.18C538.4 388.4 538.4 388.4 537 387c-15.97-2.37-34.02-2.15-50 0l-1 1c-1.68.23-3.37.41-5.06.56-.92.09-1.84.17-2.79.26-.71.06-1.42.12-2.15.18.52-2.76 1.11-5.33 2-8h2l2-6h2l2-6h2l2-5h2c.07-.53.15-1.06.22-1.61 1.09-3.34 3.11-5.88 5.22-8.64.41-.55.81-1.11 1.23-1.68 1.06-1.4 2.19-2.74 3.33-4.07h2c.08-.56.17-1.11.25-1.69.99-3.04 2.71-4.84 4.75-7.31.76-.96 1.51-1.91 2.29-2.89.77-.97 1.54-1.93 2.33-2.92.78-.98 1.56-1.95 2.36-2.96.66-.74 1.33-1.47 2.02-2.23h2c.07-.54.15-1.08.22-1.64 1.09-3.3 3.01-5.44 5.22-8.11.8-.98 1.6-1.97 2.43-2.98.7-.75 1.41-1.5 2.13-2.27h2c.1-.64.21-1.28.31-1.94.23-.68.46-1.36.69-2.06l3-1c.7-1.65 1.36-3.32 2-5 1.27-1.82 2.61-3.59 4-5.31.7-.89 1.4-1.77 2.12-2.68.62-.66 1.24-1.33 1.88-2.01h2c.06-.38.06-.38.38-2.31C549 288 549 288 551 285c2.04-6.74 1.78-14.56-1-21-.41-.97-.83-1.94-1.25-2.94-2.97-5.19-6.18-9.61-11.75-12.06v-2c-5.01-.81-9.92-1.21-15-1.25l-2.04-.06c-8.28-.07-14.54 4.11-21.51 8.1C496 255 496 255 493 255v2c-2.65 1.46-3.89 2-7 2v2c-1.15.33-1.15.33-7 2v2c-.66.16-.66.16-4 1-.88-2.47-1.13-3.64-.22-6.14.38-.7.76-1.39 1.16-2.11.38-.71.76-1.41 1.15-2.14.15-.27.15-.27.91-1.61h2l2-7h2l2-6h2c.14-.78.29-1.57.44-2.38C489 236 489 236 490 234h2l2-6h2l2-6h2l2-5h2c.27-.93.54-1.86.81-2.81 1.2-3.23 1.83-3.91 4.19-6.19 2.34-2.88 4.64-5.79 6.94-8.7.68-.76 1.36-1.52 2.06-2.3h2l2-4h2l2-4h2l2-4h2l2-4h2l2-4h2v-2c.56-.23 1.11-.45 1.69-.69 2.31-1.31 2.31-1.31 4.5-3.56C555.14 162 555.14 162 560 162v-2c10.08-5.96 20.01-10.95 31-15 .79-.31 1.58-.61 2.4-.93 1.86-.71 3.73-1.39 5.6-2.07.76-.28 1.52-.56 2.3-.84 4-1.42 7.39-2.58 11.7-2.16"/></svg>