<svg xmlns="http://www.w3.org/2000/svg" width="2160" height="2160"><path fill="#f58712" d="M889.201 65.876c.37 0 .37 0 2.26.01h2.36c2.59 0 5.18.01 7.78.02h5.37c4.73 0 9.46.01 14.18.03 4.82.01 9.64.01 14.46.02 9.46.01 18.93.02 28.39.04v2h1.66c5.67-.02 11.35-.04 17.03-.05 2.12-.01 4.24-.01 6.36-.02 3.04-.01 6.09-.02 9.13-.02.95-.01 1.9-.01 2.88-.02h2.67c.39 0 .39 0 2.36-.01 1.91.12 1.91.12 3.91 1.12v2h27l1 3h21v2l1.71-.03c2.56-.04 5.11-.06 7.66-.09.89-.02 1.78-.03 2.7-.05.85-.01 1.7-.01 2.58-.02.39-.01.39-.01 2.38-.03 1.97.22 1.97.22 3.97 2.22 2.52.26 4.97.42 7.5.5 7.23.23 7.23.23 9.5 2.5 2.36.31 4.74.5 7.12.63 1.29.07 2.57.15 3.89.23.98.04 1.97.09 2.99.14v3h14v2h13v3h13l1 3h11v2c.35-.01.35-.01 2.12-.07.45 0 .45 0 2.75-.05.46-.01.46-.01 2.75-.07 2.38.19 2.38.19 4.38 2.19 2.59.38 5.16.51 7.78.66.37.06.37.06 2.22.34l1 2c2.07.42 2.07.42 4.56.63.83.07 1.65.15 2.51.23.63.04 1.27.09 1.93.14l1 3h10v2h8l1 3h9l1 3h8v2l9 1v2h7l1 3 2.87-.12c3.13.12 3.13.12 5.13 2.12 1.99.4 3.99.74 6 1v2c1.03.13 2.06.25 3.12.38 3.5.56 6.56 1.41 9.88 2.62v3h8l1 2c2.32.41 4.66.75 7 1v2h6v3h7l1 3h6v2l2.87-.06c3.13.06 3.13.06 5.13 1.06v2c1.15.17 1.15.17 7 1v2h6v3h6l-1 5h-5l-1 3c-.93.07-1.85.13-2.81.19-1.2.08-2.39.17-3.63.25-1.19.08-2.39.16-3.62.25-2.94.31-2.94.31-3.94 1.31-2.53.08-5.03.1-7.56.07-.36-.01-.36-.01-2.16-.02-1.76-.01-3.52-.03-5.28-.05v3h-14v2c-3 1.51-5.79 1.1-9.13 1.07l-3.88-.03c-.99-.01-1.97-.02-2.99-.04v2c-3.86 1.29-7.57 1.43-11.6 1.72-2.4.28-2.4.28-3.4 1.28-3.62.29-7.25.45-10.88.63-1.03.12-2.06.25-3.12.37l-1 2h-11v2c-2.41 1.21-3.95 1.11-6.63 1.07l-2.47-.03c-.63-.01-1.26-.02-1.9-.04v2h-10v3c-1.03.1-1.03.1-6.15.59-.61.14-1.22.27-1.85.41l-1 2h-8v2c-2.71 1.36-5.01 1.07-8 1v2h-8v3h-5l-1 3c-4.43 1.65-8.29 2.23-13 2v3h-5v3h-6v3h-5v2h-6v3h-5v3h-4v2h-4l-1 3h-5v3c-.64.13-1.28.25-1.94.38-.68.21-1.36.41-2.06.62l-1 2h-3v2h-5v3h-3v3h-5l-1 3h-2v2h-4l-1 3h-3l-1 3h-2v2c-2.91 2.05-4.4 3-8 3v3h-3l-1 3h-2v2c-.64.13-1.28.25-1.94.38-.68.21-1.36.41-2.06.62l-1 2h-3v3h-2v2h-3v3h-3v3h-3l-1 3h-2v2c-.56.23-1.12.46-1.69.69-2.98 1.7-4.94 3.83-7.31 6.31a441 441 0 0 1-3.69 3.82c-.58.6-1.16 1.21-1.76 1.83-1.55 1.35-1.55 1.35-3.55 1.35v3h-3v2h-3c-.06.29-.06.29-.38 1.75-.63 2.28-1.51 4.18-2.62 6.25h-2l-1 3h-2v3h-3v3h-2v2h-3v3h-3v3h-3v3h-2l-1 5h-2l-1 3h-2v2h-2v3h-3l-1 5h-2v3h-3v3h-2v3c-.33.17-.33.17-2 1-.63 2.07-.63 2.07-1 4h-3v3h-2c-1.08 2.66-2.1 5.29-3 8h-3v3h-3v5h-2v3h-3v5h-3v3h-3v5h-2v3h-3v5l-3 1v2h-2v5l-3 1-1 5h-2v3h-3v5h-2c-.13.75-.25 1.49-.38 2.25-.58 2.58-1.25 4.5-2.62 6.75-.33.17-.33.17-2 1-.63 2.07-.63 2.07-1 4h-2l-1 5h-2v5l-3 1-1 5h-2c-.13.56-.25 1.12-.38 1.69-.68 2.54-1.61 4.89-2.62 7.31h-2v5h-3v5h-2l-1 6h-2v5h-3v6h-3c.08.66.16 1.32.25 2-.3 3.62-1.55 5.92-3.24 9.09-2.18 4.12-3.57 8.5-5.01 12.91h-3v6h-2v5c-.33.17-.33.17-2 1-.73 2.32-1.4 4.65-2 7h-2v6h-2l-1 7h-2v6h-3v7l-3 1v6h-2v7l-3 1v5h-3v9h-2l-1 8h-2v7l-3 1v8h-3v8h-2v8h-3v3c.29-.18.29-.18 1.79-1.09.79-.46 1.58-.93 2.4-1.41.77-.46 1.55-.92 2.35-1.4 2.7-1.2 4.54-1.3 7.46-1.1v-3h5v-3h5v-2l3-1 1-2h5v-3h5l1-3h5v-2h5v-3h3l1-3h4v-2h6v-3h5v-3c.74-.26 1.48-.53 2.25-.81 2.75-1.19 2.75-1.19 4.75-2.81 2.49-1.71 4.04-1.62 7-1.38v-3h5v-3c.91-.26 1.81-.53 2.75-.81 3.25-1.19 3.25-1.19 5.37-2.81 1.88-1.38 1.88-1.38 5.88-1.38v-3h5l1-3h5v-2h5v-3h3v-2l5-1v-2l6-1v-2h5v-3c2.97-1.23 5.85-2.3 9-3v-2h5v-3h5v-3c.8-.12 1.61-.24 2.44-.37.42-.1.42-.1 2.56-.63l1-2c3.03-1.88 4.24-2 8-2v-3h5l1-3h5v-2h5v-3c2.89-2.1 4.38-3 8-3v-2l6-1v-2h5v-3h5l1-3c3.31-2.2 4.34-2.22 8.19-2.12.9.02 1.8.04 2.73.05.34.02.34.02 2.08.07l-1 5h-2v3h-2v2h-3c-.13.77-.25 1.53-.38 2.32-.62 2.68-.62 2.68-2.62 5.68h-3v3h-2v3h-3l-1 5h-2v3c-1.38 1.69-1.38 1.69-3 3h-2l-1 3h-2c-.08.54-.17 1.08-.25 1.63-1.03 3.27-2.66 5.67-4.75 8.37h-3v3h-3v3h-2l-1 5h-2v3h-3v3h-3v2h-2l-1 6h-2l-1 3h-2v2h-3v3h-2l-1 5h-2v3h-3v3h-2l-1 3h-2l-1 5h-2v3h-3l-2 5h-3c.03.39.03.39.19 2.32-.19 2.68-.19 2.68-1.57 4.5-1.62 1.18-1.62 1.18-3.62 1.18l-1 3h-2v3h-3v5h-3v3h-2v3h-3v5h-3v3h-3c-.15.77-.29 1.53-.44 2.32-.56 2.68-.56 2.68-1.56 5.68h-3v3h-3v5h-2l-1 3h-2l-1 5h-2v3h-3v5h-2v3h-3v5l-3 1v2h-2l-1 6h-2v3l-2 1c-.63 2.07-.63 2.07-1 4h-3v5h-2v3h-3v5l-3 1v5h-2c-1.08 2.66-2.1 5.29-3 8h-3v5l-3 1v5h-2l-1 5h-2v5l-3 1c-.53 1.71-.53 1.71-1 4-.82 1.93-1.68 3.85-2.56 5.75-.46.99-.91 1.97-1.38 2.99-.35.75-.7 1.49-1.06 2.26h-2v4l-2 1c-.82 2.22-.82 2.22-1.56 4.94-1.37 4.92-1.37 4.92-2.44 7.06h-2v5l-3 1v5h-3v6h-2v5h-3v7l-3 1v6h-2v5l-2 1c-.41 2.33-.75 4.66-1 7h-3l.06 2.88c-.06 3.12-.06 3.12-1.06 5.12h-2v6h-2v7l-3 1 .12 2.88c-.12 3.12-.12 3.12-2.12 5.12-.4 1.99-.74 3.99-1 6h-2l-1 8h-2v8h-3l.06 3.88c.06 3.87.06 3.87-1.06 6.12h-2v9h-2v8h-3v11h-3l.12 3.88c.07 2.18.07 2.18-.12 4.12l-2 2c-.38 2.13-.38 2.13-.56 4.57-.34 4.34-.34 4.34-1.44 5.43-.29 2.52-.45 5.03-.62 7.56-.38 2.44-.38 2.44-2.38 5.44-.42 2.48-.42 2.48-.63 5.19-.07.9-.15 1.8-.22 2.73l-.15 2.08-3 1v13h-2l.03 2.31c.01.49.01.49.03 3.01.01.49.01.49.04 2.99-.1 2.69-.1 2.69-1.1 5.69h-2c.02.92.05 1.83.07 2.78.02 1.19.04 2.37.05 3.6.03 1.18.05 2.37.07 3.59-.19 3.03-.19 3.03-2.19 5.03-.31 2.9-.51 5.72-.63 8.63-.03.8-.07 1.6-.11 2.43-.1 1.98-.18 3.96-.26 5.94h-3c0 .57.01 1.15.01 1.73.03 2.57.04 5.14.05 7.71l.03 2.72c0 .86 0 1.71.01 2.59 0 .79.01 1.58.01 2.4-.11 1.85-.11 1.85-1.11 2.85-.15 1.53-.23 3.06-.28 4.59l-.12 2.82c-.03.98-.07 1.96-.1 2.97-.07 1.92-.14 3.85-.22 5.77-.02.43-.02.43-.09 2.6-.19 2.25-.19 2.25-1.19 5.25h-2v35h-3v99l3 1v34h2c.97 2.93 1.18 5.02 1.28 8.07.04.98.07 1.96.11 2.97l.21 6.2.12 2.96.09 2.72c.19 2.08.19 2.08 1.19 3.08.09 1.49.11 2.99.1 4.48-.01.9-.01 1.8-.01 2.72l-.03 2.87c0 .47 0 .47-.01 2.87-.01 2.36-.03 4.71-.05 7.06h3v17l3 1v15h2c1.65 3.3 1.45 6.93 1.72 10.57.28 2.43.28 2.43 1.28 3.43.07 2.19.08 4.38.06 6.57l-.03 3.63c0 .46 0 .46-.03 2.8h3v11h2c1.2 2.41 1.1 3.95 1.06 6.63 0 .41 0 .41-.03 2.48 0 .31 0 .31-.03 1.89h2v11h3v10l3 1v8h2c1.35 2.71 1.06 5.01 1 8h2v8h3l.94 2.94c1.06 3.06 1.06 3.06 2.06 4.06q.06 3 0 6h2l1 6h2v5l3 1v5h3v5h2v6h3v3l3 1v4h2l1 5h2v3h3v5l3 1v2h2c2.04 2.91 3 4.41 3 8h3v3l3 1v2h2v5h3v3h3v3h2v2h3v3h3v3l3 1v2h2v2l3 1v2h3v3h2v2h3v3h3v3h3c.23.81.45 1.61.69 2.44.43.85.86 1.69 1.31 2.56 1.66.37 3.33.7 5 1 2.27 1.49 4.02 3.11 6 5v2l5 1v2h3v3h3v3l2.31-.12c2.69.12 2.69.12 5.69 2.12v3h6v3c.38.07.38.07 2.31.38 2.69.62 2.69.62 5.69 2.62v2h5v3h6v3h5v2h5l1 3h5v3c.7-.06 1.4-.12 2.12-.18 3.53.23 5.82 1.48 8.88 3.18v2h7l1 3h5l1 3 3.12-.12c3.78.12 6.43.65 9.88 2.12l1 2c2.33.34 4.66.68 7 1l2 2c1.89.24 3.79.46 5.69.65 3.93.6 7.59 1.99 11.31 3.35v2l3.87-.12c2.18-.07 2.18-.07 4.13.12l2 2c2.16.42 2.16.42 4.62.63.82.07 1.64.15 2.48.23.63.04 1.25.09 1.9.14v3h11v2l2.3-.03c.5-.01.5-.01 3.01-.03l2.99-.03c2.7.09 2.7.09 5.7 1.09v2c.91-.02 1.83-.04 2.77-.07.6 0 .6 0 3.6-.05 1.19-.02 2.37-.05 3.59-.07 3.04.19 3.04.19 5.04 2.19 2.75.35 2.75.35 6 .5 5.78.28 5.78.28 8 2.5 2.88.29 5.68.47 8.56.57 8.32.31 8.32.31 9.44 1.43 1.49.16 2.98.26 4.47.32.9.04 1.8.08 2.73.13l2.86.12c.48.02.48.02 2.88.13 2.35.1 4.7.21 7.06.3l1 3 2.58-.03c3.18-.03 6.36-.06 9.53-.08 1.38-.01 2.75-.02 4.12-.04 1.98-.02 3.96-.03 5.94-.04l3.6-.03c3.23.22 3.23.22 5.59 1.21 3.86 1.48 7.56 1.37 11.66 1.43l2.6.06c2.73.06 5.46.1 8.19.15l5.57.12c4.54.09 9.08.18 13.62.25v2h2.83c22.74-.02 45.47-.04 68.2-.05 11 0 21.99-.01 32.98-.02 9.58-.01 19.16-.02 28.74-.02 5.08 0 10.15 0 15.23-.01 4.77-.01 9.54-.01 14.31-.01h5.27c2.39-.01 4.78-.01 7.17-.01h2.12c3 0 5.27.17 8.15 1.12v2h49v3l2.4-.03c3.59-.04 7.19-.06 10.79-.09 1.24-.02 2.49-.03 3.77-.05 1.2-.01 2.41-.01 3.64-.02l3.35-.03c3.12.23 5.2 1 8.05 2.22 2.13.32 2.13.32 4.21.42l2.27.12 2.33.09 2.39.12c1.93.09 3.87.17 5.8.25v2c1.27-.02 2.55-.04 3.87-.07 1.67-.01 3.33-.03 5-.05.85-.02 1.69-.03 2.55-.05.81-.01 1.62-.01 2.45-.02l2.25-.03c1.88.22 1.88.22 3.88 2.22 3.38.39 6.73.51 10.13.66.95.11 1.89.23 2.87.34l1 2c2.53.29 4.96.47 7.5.57 7.38.32 7.38.32 8.5 1.43 2.29.29 4.57.45 6.87.63 2.13.37 2.13.37 4.13 2.37 2.82.42 2.82.42 6.12.63.55.04.55.04 3.32.23.85.04 1.69.09 2.56.14l1 3h10l1 3h10v2l1.9-.03 2.47-.03 2.46-.03c2.17.09 2.17.09 4.17 1.09v2h8l1 2c1.85.42 1.85.42 4.06.63 1.3.12 2.6.25 3.94.37v2l3.31-.06c3.69.06 3.69.06 6.69 1.06v2l3.37-.12c3.63.12 3.63.12 5.63 2.12 2.32.4 4.66.74 7 1l1 3h7v2l2.87-.12c3.13.12 3.13.12 5.13 2.12 2.32.72 4.65 1.4 7 2v2l3.37-.12c3.63.12 3.63.12 5.63 2.12 2.12.63 2.12.63 4 1v2h8v3h6v3l3.12-.12c3.75.12 6.42.77 9.88 2.12v3h6v3l2.37-.12c2.63.12 2.63.12 4.63 2.12 1.99.4 3.99.74 6 1v2h5l1 3h5v3h6v2l5 1v2l5 1v2h3v3h6v2h5v3h5l1 3c.76.13 1.52.25 2.31.38 2.69.62 2.69.62 5.69 2.62v2h5v3h5l1 3h3v2h5v3h5v3h3v2l6 1v2l5 1v2h3v3h5v2h3v3h5v3h3v3h5v2h3v3h5l1 3h2v2l6 1v2l3 1v2l5 1v2h3v2c2.65 1.08 5.28 2.1 8 3v3h3v2l5 1v2h3v3h2l1 2c2.56.63 2.56.63 5 1v2l3 1v2h2v3h5l1 3c2.56 1.19 2.56 1.19 5 2v3l5 1v2h3v2h3v3h3v3l5 1v2h3v2h3v3h2v3c.58.13 1.15.25 1.75.38 2.27.63 4.17 1.51 6.25 2.62v2h3v3h3v3h3v2l3 1v2c2.33 1.21 4.5 2.17 7 3 1.69 1.44 1.69 1.44 3 3v2h3v3h3v3l5 2v3h3v3h3v2h2v3h3v3h3v3h3v2h2c1.35 1.65 2.69 3.32 4 5l2 1v2h2c1.34 1.67 2.67 3.33 4 5 .91.73 1.81 1.45 2.75 2.19.74.6 1.48 1.2 2.25 1.81v2h2v3h3v3h3v3h3v2h2v3h3v3h3l2 5h3v3l3 1c3 4.34 3 4.34 3 7h2v3h3c1.69 1.38 1.69 1.38 3 3v2h2v3h3c.12.64.25 1.28.37 1.94.21.68.42 1.36.63 2.06l2 1v3h3v3h2v3h3v5h3v3h2v2l3 1c.37 1.33.7 2.66 1 4l2 1v3h3v2h2v6h3v2l3 1c2.07 2.93 3 4.38 3 8h2v3l3 1v4h3v3h2v5h3c.12.64.25 1.28.37 1.94.21.68.42 1.36.63 2.06l2 1v3h2c1.3 2.6 1.13 4.55 1.12 7.44.01.97.01 1.94.01 2.94-.13 2.62-.13 2.62-1.13 5.62h-2l-1 3h-15v-3h-6v-2h-5l-1-2c-1.98-.73-3.98-1.39-6-2-2.02-.6-4.03-1.26-6-2l-1-2c-2.56-.62-2.56-.62-5-1v-2h-5c-.17-.49-.17-.49-1-3h-5v-3c-.83.07-1.65.13-2.5.19-4.38-.23-7.46-1.51-11.5-3.19v-2h-5v-3h-8v-3h-6v-2h-7l-1-3h-5v-3c-1.14.09-2.27.17-3.44.25-4.39.02-7.47-1.31-11.37-3.22-3-1.4-5.99-2.21-9.19-3.03v-2h-6v-3c-1.3.03-2.6.05-3.94.07-1.35.02-2.71.01-4.06-.07l-1-1c-2.33-.36-4.66-.7-7-1l-1-3h-8v-3h-8v-2c-1.3-.14-2.6-.28-3.94-.43-3.94-.44-3.94-.44-5.06-1.57-1.49-.36-3-.69-4.5-1-4.39-.88-4.39-.88-5.5-2-1.35-.23-2.71-.41-4.06-.56-1.3-.14-2.6-.29-3.94-.44v-3c-1.3.03-2.6.05-3.94.07-1.35.02-2.71.01-4.06-.07l-1-1c-1.68-.39-3.37-.74-5.06-1.06-.92-.17-1.84-.35-2.79-.53-.71-.14-1.42-.27-2.15-.41v-2h-8v-3h-11v-3h-8v-2h-11v-3h-10l-1-3h-10v-2c-.62.02-1.23.03-1.86.04l-4.88.06c-2.26-.1-2.26-.1-5.26-1.1v-2h-10l-1-3h-13v-3c-.93.02-1.85.03-2.81.04-.6 0-.6 0-3.63.03l-3.62.03c-2.94-.1-2.94-.1-3.94-1.1-2.18-.23-4.37-.41-6.56-.56-.6-.04-.6-.04-3.63-.25-.47-.03-.47-.03-2.81-.19l-1-3h-16v-3h-19v-2c-.59.01-1.17.01-1.77.02-2.66.02-5.32.03-7.98.05-.92.01-1.84.01-2.79.02-.89.01-1.78.01-2.7.01-.81.01-1.63.01-2.47.02-2.23-.11-4.15-.5-6.29-1.12v-2h-30v-3c-.57.17-1.14.33-1.72.5-2.36.52-4.36.59-6.77.53l-2.67-.06-2.86-.09c-.97-.02-1.94-.04-2.94-.07-3.1-.07-6.19-.16-9.29-.24-2.1-.06-4.2-.11-6.31-.16-5.14-.13-10.29-.27-15.44-.41l-1-3c-2.13.15-4.25.29-6.38.44-1.18.08-2.36.16-3.58.25-3.04.31-3.04.31-5.04 1.31v-2c-.63.01-1.26.01-1.91.02-15.35.13-30.7.25-46.05.38l-22.26.18c-6.47.05-12.94.1-19.41.16-3.42.02-6.85.05-10.28.08l-11.46.09-3.45.03-3.15.03c-.45 0-.45 0-2.74.02-3.33.02-6.63-.03-9.96-.2-.89-.05-1.78-.09-2.7-.14-.93-.05-1.86-.1-2.82-.15-.94-.04-1.88-.09-2.85-.14l-6.96-.36v3h-63v3l-1.79.03c-6.15.09-12.3.18-18.44.29-2.3.04-4.59.07-6.89.11-3.3.04-6.59.1-9.89.16-1.03.01-2.05.02-3.11.04l-2.91.06c-.84.01-1.68.02-2.55.04-2.74.31-4.87 1.23-7.42 2.27-2.81.22-5.52.35-8.33.38-.39.01-.39.01-2.39.05-2.51.06-5.02.1-7.53.14-2.53.04-5.05.09-7.57.14-1.57.03-3.14.06-4.71.08-5.36.1-5.36.1-6.47 1.21-2.96.09-5.89.12-8.85.1h-2.69l-8.52-.03c-1.93-.01-3.85-.01-5.77-.02-4.72-.01-9.45-.03-14.17-.05l-1 3h-40l-1 3h-40v2h-44v3h-51l-1 3h-65v2c-3.21.96-6.08 1.12-9.42 1.1-.52 0-.52 0-3.11-.01-1.06-.01-2.13-.01-3.22-.02-1.08-.01-2.16-.01-3.27-.02-2.66-.01-5.32-.02-7.98-.05v2h-187v-2c-.64.01-.64.01-3.9.02-4.77.02-9.54.03-14.31.04-2.06 0-4.13.01-6.19.02-2.97.01-5.94.02-8.9.02-.93.01-1.85.01-2.81.02h-4.9c-1.99-.12-1.99-.12-4.99-1.12v-2c-.9.01-1.8.01-2.72.02-3.33.02-6.66.03-9.99.04-1.44 0-2.88.01-4.32.02-2.07.01-4.14.02-6.21.02-1.25.01-2.5.01-3.78.02-2.98-.12-2.98-.12-4.98-1.12v-2h-25v-3h-22v-2c-1.12.02-2.24.03-3.4.04l-4.41.03c-.74.01-1.48.01-2.24.02-3.25.02-5.85-.05-8.95-1.09v-2h-15l-1-3h-14v-2c-.9.02-1.81.03-2.74.04-.59 0-.59 0-3.57.03l-3.55.03c-3.14-.1-3.14-.1-6.14-1.1v-2h-11v-3h-13l-1-3h-11v-2h-10l-1-3h-10l-1-3h-10v-2l-9-1v-2h-9l-1-3h-8l-1-3h-8v-2h-7l-1-3h-8v-3h-8v-3h-8v-2h-6v-3h-8v-3c-.83.07-1.65.13-2.5.19-4.38-.23-7.46-1.51-11.5-3.19v-2h-5v-3h-7l-1-3h-6v-2h-5v-3h-6v-3c-.68.07-1.36.13-2.06.19-3.86-.24-6.45-1.54-9.94-3.19v-2c-.39.03-.39.03-2.38.13-2.62-.13-2.62-.13-4.62-2.13-2.63-.62-2.63-.62-5-1v-3h-5v-2c-.7-.1-1.4-.2-2.13-.31-3.26-.78-5.92-2.11-8.87-3.69v-2h-3v-2l-6-1v-2h-5v-3h-5v-3c-.74-.12-1.49-.24-2.25-.37-2.55-.58-4.48-1.36-6.75-2.63v-2h-5v-3h-5v-3h-3v-2h-5l-1-3c-2.55-1.58-5.08-2.37-8-3v-2l-5-1v-2h-3v-3l-5-1v-2h-3v-2l-5-1v-2h-3v-3h-3v-2l-5-1v-2h-3v-3h-3l-1-2c-2.06-.62-2.06-.62-4-1v-2h-3v-3l-5-1v-2h-3c-1.69-1.37-1.69-1.37-3-3v-2h-3v-3l-5-1v-2h-3v-2l-3-1v-2h-2v-3l-5-1v-2h-3v-2h-3v-3h-3v-3h-3v-2h-2v-3h-3v-3l-5-1v-2h-3v-2l-3-1v-2l-3-1v-2h-2v-2l-3-1v-2h-3v-3h-3v-3h-2v-2h-3v-3h-3v-3h-2v-2l-3-1v-2h-3v-3h-3v-3h-2v-2h-3v-3h-3v-3h-2c-1.63-1.37-1.63-1.37-3-3v-2l-3-1v-2l-3-1v-2h-2c-.13-.63-.25-1.27-.38-1.93-.2-.68-.41-1.36-.62-2.07l-2-1v-3h-3v-3h-3v-2h-2v-3h-3v-3h-3v-3h-2v-5h-3v-3h-3v-2l-3-1v-2h-2c-2.04-2.9-3-4.4-3-8h-3v-3h-2v-3l-3-1v-4h-3v-3h-3v-3h-2v-5h-3v-3h-3v-5l-3-1v-2h-2v-3l-3-1v-4h-3v-3h-2v-5h-3v-4h-2c-.1-.63-.21-1.27-.31-1.93-.23-.68-.46-1.36-.69-2.07l-3-1c-1.04-2.31-2.04-4.65-3-7l-2-1v-5h-3v-3h-2v-5h-3v-5l-3-1v-3h-2l-1-5h-2v-5h-3v-6h-3v-5l-3-1c-2-3-2-3-2-7l-3-1v-5l-3-1v-4h-2v-6h-3v-5h-3c-1.27-3.64-2.33-7.19-3-11h-2v-6h-2l-1-7-3-1v-5h-2v-5h-3v-6l-3-1v-7h-3v-5h-2c-.13-1.13-.25-2.26-.38-3.43-.2-1.18-.41-2.35-.62-3.57l-2-1v-6l-3-1v-7h-2c-.13-.8-.25-1.6-.38-2.43-.2-.85-.41-1.69-.62-2.57l-2-1v-8h-3v-8h-3c-1.59-4.87-2.21-8.8-2-14h-3v-9l4-1 1 3h3v2l3 1v2h2c2.04 2.91 3 4.41 3 8h3v3h3v3h2v2l3 1c3 4.34 3 4.34 3 7h2l1-90h-3v-10l-3-1v-10l-3-1v-10h-2v-11h-3c-.05-.75-.1-1.51-.15-2.3-.04-.49-.04-.49-.23-3.01-.03-.49-.03-.49-.21-2.99-.41-2.7-.41-2.7-2.41-5.7-.38-2.44-.38-2.44-.56-5.12-.34-4.78-.34-4.78-1.44-5.88-.24-2.18-.41-4.37-.56-6.56-.09-1.2-.17-2.39-.26-3.63-.06-.92-.12-1.85-.18-2.81h-2v-14h-3v-14h-2c-1.5-3-1.09-5.79-1.06-9.12 0-.64 0-.64.02-3.88.01-.5.01-.5.04-3h-2v-16h-3c-.17-2.97-.17-2.97-1-18l-2-1v-17h-2c-.79-2.77-1.12-5.22-1.1-8.1 0-.76.01-1.51.01-2.29 0-.39 0-.39.03-2.36 0-.79.01-1.58.01-2.4.01-1.95.03-3.9.05-5.85h-2v-22l-3-1-.06-2.17c-.1-3.23-.21-6.47-.32-9.7l-.09-3.42-.12-3.26-.09-3.02c-.32-2.43-.32-2.43-2.32-4.43-.3-2.69-.3-2.69-.38-6.06-.03-1.21-.07-2.42-.1-3.66-.03-1.27-.06-2.53-.08-3.84-.06-2.5-.13-5-.2-7.5-.02-1.12-.04-2.23-.07-3.38-.17-2.56-.17-2.56-1.17-3.56-.09-2.59-.12-5.16-.1-7.75 0-.77 0-1.55.01-2.35 0-2.49.01-4.97.03-7.46 0-1.68.01-3.36.01-5.04.01-4.13.03-8.26.05-12.4h-2c-1.25-2.5-1.12-4.19-1.11-7v-3.15c0-1.13.01-2.25.01-3.42 0-.57 0-.57.01-3.48q0-5.535.03-11.07c0-2.5.01-4.99.01-7.49.01-6.13.03-12.26.05-18.39h-2c-1.26-2.51-1.13-4.23-1.14-7.04 0-1.07 0-2.14-.01-3.24v-3.57c0-1.23 0-2.47-.01-3.74 0-3.4-.01-6.79-.01-10.19 0-2.83 0-5.66-.01-8.49 0-6.68-.01-13.35-.01-20.03 0-6.89-.01-13.79-.02-20.68-.02-5.91-.02-11.83-.02-17.74 0-3.54 0-7.07-.01-10.61-.01-3.93-.01-7.87 0-11.81-.01-1.18-.02-2.36-.02-3.57 0-.53 0-.53.01-3.24v-2.82c.25-2.23.25-2.23 2.25-4.23.28-2.21.28-2.21.32-5l.06-3.15.03-3.42.06-3.48q.09-5.535.15-11.07l.12-7.49c.1-6.13.18-12.26.26-18.39l3-1c-.01-1.05-.01-2.11-.02-3.19-.02-3.9-.03-7.8-.04-11.7 0-1.7-.01-3.39-.02-5.08-.01-2.42-.01-4.85-.02-7.27 0-.38 0-.38-.01-2.31 0-1.81.05-3.63.11-5.45l1-1c.13-1.9.2-3.8.24-5.71.04-1.16.07-2.32.1-3.52.07-2.46.12-4.93.18-7.4.01-.58.01-.58.1-3.52.02-1.07.05-2.14.08-3.25.3-2.6.3-2.6 2.3-4.6.29-2.3.29-2.3.34-5.15.02-.51.02-.51.09-3.1.02-1.07.05-2.14.07-3.25.04-2.11.09-4.22.15-6.34l.06-2.85c.29-2.31.29-2.31 2.29-4.31.32-2.06.32-2.06.41-4.57l.12-2.71.09-2.84.12-2.86c.1-2.34.18-4.68.26-7.02h2c-.01-.97-.02-1.95-.04-2.95-.01-1.27-.01-2.55-.02-3.86-.02-1.26-.03-2.53-.04-3.83.1-3.36.1-3.36 1.1-6.36h2v-15l3-1v-13l3-1v-13h2c-.02-.77-.05-1.54-.07-2.33l-.06-3.04c-.02-1-.04-2-.07-3.02.2-2.61.2-2.61 2.2-4.61.41-2.38.41-2.38.62-5.12.08-.91.15-1.82.23-2.76l.15-2.12 3-1v-11h2c.06-.71.12-1.42.18-2.15.09-.92.17-1.84.26-2.78.08-.92.16-1.84.24-2.78.32-2.29.32-2.29 1.32-3.29.23-1.34.41-2.7.56-4.06.15-1.3.29-2.6.44-3.94l3-1v-10h3v-9h2l-.06-3.87c-.07-3.88-.07-3.88 1.06-6.13h2v-8l3-1v-8h3v-10h2v-8l3-1v-8h3c-.02-.56-.05-1.13-.07-1.72-.12-5.15.39-9.34 2.07-14.28l1-3h2v-8h3l-.06-3.87c-.07-3.88-.07-3.88 1.06-6.13h2v-9h2l1-5h4c2.96 6.53 3.35 11.88 3 19l3 1v12h3v14h3v11h2v13h3c.16 2.31.16 2.31 1 14h2v11h2v13h3v14h3c.02.43.02.43.15 2.56.03.55.03.55.22 3.32.07 1.09.14 2.18.21 3.3.42 2.82.42 2.82 2.42 4.82.38 2.35.38 2.35.56 5.07.34 4.84.34 4.84 1.44 5.93.07 2.19.08 4.38.06 6.57l-.03 3.63-.03 2.8h3v13l3 1v13h2c.13.79.26 1.57.4 2.38.18 1.01.35 2.02.54 3.06.17 1.01.34 2.02.52 3.06.54 2.5.54 2.5 1.54 3.5.07 2.19.08 4.38.06 6.57l-.03 3.63-.03 2.8h3v13h3v-8h2v-7l3-1v-8h3v-8l2-1c.41-2.32.74-4.65 1-7h2v-6h3v-8h3c-.06-1.01-.13-2.02-.19-3.06.22-4.49 1.23-6.95 3.19-10.94h2l.31-3.06c.73-4.15 1.91-7.15 3.69-10.94h2c-.06-.66-.13-1.32-.19-2 .26-4.09 1.65-7.2 3.19-11h2v-5l3-1v-7l2-1c.62-2.56.62-2.56 1-5h2v-5l3-1v-5h3c-.06-.84-.13-1.69-.19-2.56.23-4.17 1.39-6.69 3.19-10.44h2v-5l3-1v-5l2-1c.62-2.56.62-2.56 1-5h2v-5h3v-6h3v-5h2l1-6h2l1-5h2v-5l2-1c.85-1.84.85-1.84 1.62-4.06.26-.73.52-1.47.79-2.22.2-.57.39-1.13.59-1.72h3v-5h3v-6l2-1c.62-2.06.62-2.06 1-4h2v-3l2-1c.62-2.06.62-2.06 1-4h3v-6h2c1.07-2.65 2.09-5.28 3-8h3v-5h3c.14-.76.29-1.52.44-2.31.56-2.69.56-2.69 1.56-5.69h3v-5l3-1v-3h2l1-5h2v-3h3v-5h3v-3h2l1-5h2v-3h3v-5h2l1-3h2v-3l2-1c.62-2.06.62-2.06 1-4h3v-3h2l1-5h2v-3h3v-3l2-1c.62-2.06.62-2.06 1-4h2v-3h3v-3h3v-3h2l1-5h2v-3h3l1-3h2v-2h2l1-5h2v-3h3v-3h2l1-3h2l1-3h2v-2h3v-5h2l1-3h2v-3h3v-3h3v-3h2v-2h3v-3h3v-3h2v-2h3v-3h3v-3h3v-3h2v-2h3v-3h3v-3h2v-2c1.31-1.62 1.31-1.62 3-3h3v-3h3v-3h2v-2h3v-3h3v-3h3v-2c2.95-2.74 3.77-3 8-3v-3h2v-3h3v-2h3v-3h3v-3c.64-.12 1.28-.24 1.94-.37.68-.21 1.36-.41 2.06-.63l1-2h3v-2h2v-3h3l1-3c3-2 3-2 7-2v-3h3v-3h3v-2l5-1v-2h3v-3h3l1-3h4v-2c2.12-2.65 3.77-3.24 7-4l1-2h3v-3c3.09-1.76 4.23-2 8-2v-3h4v-2l4-1v-2c5.75-3 5.75-3 8-3l1-3h5v-3h3v-2h5v-3h5l1-3c1.32-.37 2.66-.7 4-1l1-2h3v-2h5v-3c.8-.12 1.61-.24 2.44-.37.84-.21 1.69-.41 2.56-.63l1-2h5v-2h5v-3c.8-.12 1.61-.24 2.44-.37.84-.21 1.69-.41 2.56-.63l1-2h5l1-3h5v-2h5v-3h6v-3h5v-2c.8-.12 1.61-.24 2.44-.37.84-.21 1.69-.41 2.56-.63l1-2c4.27-1.72 8.44-2.45 13-3l1-3h5v-2h8v-3h5l1-3h7v-2c4.97-2.43 8.34-3.34 14-3l1-3h8v-2c2.71-1.35 5.01-1.06 8-1v-2h8v-3h10v-3h9v-2c3.21-1.6 6.43-1.05 10-1v-2c.71-.04 1.42-.09 2.15-.14.46-.04.46-.04 2.79-.23.91-.07 1.83-.14 2.77-.21.76-.14 1.51-.27 2.29-.42l1-2h11l1-3h10v-2h14v-3c.85-.04 1.71-.09 2.59-.14 1.1-.08 2.21-.15 3.35-.23.55-.04.55-.04 3.34-.21.89-.14 1.79-.27 2.72-.42l1-2c2.67-.26 5.26-.42 7.94-.5 7.79-.23 7.79-.23 10.06-2.5 2.58-.14 5.05-.18 7.62-.12l2.14.03c1.75.02 3.49.06 5.24.09v-2l1.8-.06c2.69-.09 5.38-.2 8.07-.31l2.84-.09 2.72-.12c.83-.03 1.65-.06 2.51-.1 2.06-.32 2.06-.32 4.06-2.32 2.21-.33 2.21-.33 4.94-.44.48-.03.48-.03 2.96-.14 1.02-.03 2.04-.07 3.1-.1l3.1-.15c7.62-.3 7.62-.3 9.9.83v-2c3.32-1.65 7.04-1.22 10.69-1.28.86-.02 1.72-.03 2.61-.05 3.69-.08 7.38-.15 11.07-.22 2.69-.05 5.38-.11 8.07-.16.84-.02 1.68-.03 2.55-.05 4.5-.09 7.77-1.35 12.21-1.36m-29.2 58.12c-2.15.16-4.29.26-6.44.32-.66.02-.66.02-3.96.13l-4.16.12c-1.4.04-2.79.08-4.18.13-3.42.1-6.84.21-10.26.3v3h-21l-1 3-3.47-.03-4.47-.03c-.75-.01-1.51-.01-2.29-.02-1.92-.01-3.85.03-5.77.08l-1 1c-3.21.24-6.41.4-9.63.52-1.8.09-3.59.28-5.37.48l-1 2c-3.37.4-6.71.51-10.1.66-.95.11-1.91.23-2.9.34l-1 2c-2.94.42-2.94.42-6.56.63-1.2.07-2.4.15-3.63.23-.93.04-1.86.09-2.81.14v3h-11v2h-10l-1 2c-2.58.4-5.14.51-7.75.66-.37.06-.37.06-2.25.34l-1 2c-1.98.27-3.96.53-5.94.72-2.57.35-4.69 1.26-7.06 2.28-1.66.37-3.33.72-5 1v2h-8l-1 2c-2.06.4-4.1.51-6.19.66-.6.11-1.2.23-1.81.34l-1 2c-2.32.41-4.66.75-7 1v2h-8v3h-7l-1 3h-6v2l-8 1v2h-5l-1 2c-2.33.34-4.67.67-7 1l-1 2c-2.56.63-2.56.63-5 1v2h-5l-1 2c-2.32.41-4.66.75-7 1v3h-6v3h-5v2h-6v3h-5v3h-6v2h-5v3h-3l-1 2c-2.06.63-2.06.63-4 1v2l-6 1v2h-5v3l-2.31-.18c-2.69.18-2.69.18-4.5 1.56-1.19 1.62-1.19 1.62-1.19 3.62l-6 1v2h-5v3h-3l-1 2c-2.06.63-2.06.63-4 1v2h-3v3h-5v3h-3v2l-6 1v2h-2l-1 2c-2.56.63-2.56.63-5 1v3h-2v2h-3l-1 2c-2.56.63-2.56.63-5 1v3h-2c-1.63 1.38-1.63 1.38-3 3v2h-5v3h-3v3h-3v2h-3l-1 2c-2.06.63-2.06.63-4 1v3h-3v3h-3v2h-2l-1 2-3 1v2l-4 1v2h-3v3h-3v3h-3v3h-2v2h-3v3h-3c-1.69 1.38-1.69 1.38-3 3v2h-2c-1.63 1.38-1.63 1.38-3 3v2c-.62.25-1.24.5-1.88.75-2.47 1.46-3.07 2.63-4.12 5.25h-2c-1.36 1.65-2.69 3.32-4 5l-2 1v2h-2c-.28.36-.28.36-1.69 2.13-2.39 2.98-4.92 5.11-7.92 7.44-1.39 1.43-1.39 1.43-1.39 4.43h-3v3l-3 1v2h-2v2h-3v3h-3v3h-2l-1 5h-2c-1.36 1.65-2.69 3.32-4 5l-2 1v2h-2v3h-3l-1 5h-2v3h-2c-1.63 1.32-1.63 1.32-3 3v3h-3c-2.8 2.91-3 3.79-3 8h-2c-4.07 3.74-6.68 7.59-8 13h-3l-1 5h-2l-1 3-2 1v2h-2c-3 5.75-3 5.75-3 8h-3c-.06.41-.06.41-.38 2.44-.2.85-.41 1.69-.62 2.56l-2 1v3h-2l-1 5h-2v3h-3c-.46 1.14-.91 2.27-1.38 3.44-1.62 3.56-1.62 3.56-3.62 4.56v5h-3v3h-3v5h-2c-3 5.63-3 5.63-3 9h-3v5h-2c-2.04 2.91-3 4.41-3 8h-3v6h-3v5h-2l-1 5h-2v3h-3v6h-2l-1 5h-2c-.06.41-.06.41-.38 2.44-.2.85-.41 1.69-.62 2.56l-2 1v5h-3v5h-2c-.13.81-.25 1.61-.38 2.44-.2.85-.41 1.69-.62 2.56l-2 1v5h-3c-1.27 3.65-2.33 7.2-3 11h-2c-.13.81-.25 1.61-.38 2.44-.2.85-.41 1.69-.62 2.56l-2 1v5h-3v6h-2c-.29.87-.58 1.74-.88 2.63-.37 1.11-.74 2.23-1.12 3.37-.17.55-.17.55-1 3.32-1 2.68-1 2.68-3 3.68-.08.42-.08.42-.5 2.5-.08.42-.08.42-.5 2.5l-2 1c-1.55 3.79-2.24 6.92-2 11h3v-3h2l1-2a80 80 0 0 1 5-2v-2h2v-2h3v-3h3v-3h3v-2h3l1-2c2.06-.62 2.06-.62 4-1v-3h2c1.62-1.37 1.62-1.37 3-3v-2h3v-3h3v-2c.76-.1 1.52-.2 2.31-.31 2.87-.73 3.92-1.36 5.69-3.69v-2l3-1v-2h2v-2c.47-.15.47-.15 2.87-.93 3.13-1.07 3.13-1.07 5.13-2.07v-3h3v-3h3c1.69-1.37 1.69-1.37 3-3v-2l5-1v-2h3v-3h2v-2h3v-3h3l1-2c2.06-1.12 2.06-1.12 4-2v-2h3v-2h3v-3h2c1.62-1.37 1.62-1.37 3-3v-2c.58-.12 1.15-.24 1.75-.37 2.27-.63 4.17-1.51 6.25-2.63v-3h3v-3h3v-2h3v-3h3v-2l2.37-.18c.87-.27 1.74-.54 2.63-.82 1.31-2.56 1.31-2.56 2-5h3v-3h3c.64-.63 1.28-1.27 1.94-1.93 2.12-2.13 3.15-2.65 6.06-3.07v-3h3v-3h2v-2l3-1v-2c.58-.12 1.15-.24 1.75-.37 2.27-.63 4.17-1.51 6.25-2.63v-3h3v-2h3v-3h3v-3h3v-2l5-1v-2h2v-3h3v-3h3v-2h3l1-2c2.06-.62 2.06-.62 4-1v-3h3v-3h2v-2h3c1.69-1.37 1.69-1.37 3-3v-2l8-1v8h-3v3h-3v3h-2c-.13.64-.25 1.28-.38 1.94-.2.68-.41 1.36-.62 2.06l-2 1v3h-3v3h-2l-1 5h-2v3h-3v5h-3v3h-2c-.13.64-.25 1.28-.38 1.94-.2.68-.41 1.36-.62 2.06l-2 1v3h-3v5h-2v3h-3c-.06.41-.06.41-.38 2.44-.2.85-.41 1.69-.62 2.56l-2 1c-2.01 2.94-3 4.4-3 8h-2v5h-3c-.08.75-.17 1.49-.25 2.25-.9 3.3-2.37 4.37-4.75 6.75-.75 2.75-.75 2.75-1 5h-2v5h-3c-.06.41-.06.41-.38 2.44-.2.85-.41 1.69-.62 2.56l-2 1v5h-2l-1 5h-2l-1 5h-2v4h-3v5h-2v6l-3 1c-.37 1.33-.71 2.66-1 4l-2 1c-.69 2.33-1.35 4.67-2 7-.54 1.04-1.07 2.07-1.63 3.13-1.41 2.95-1.65 4.66-1.37 7.87h-3v6h-3v7h-2c-.06.41-.06.41-.38 2.44-.2.85-.41 1.69-.62 2.56l-2 1v6h-3v8h-2c-.13.64-.25 1.28-.38 1.94-.2.68-.41 1.36-.62 2.06l-2 1v8h-3v8h-3c-.06.51-.06.51-.38 3.07-.6 3.77-1.54 7.27-2.62 10.93v2h-2c-.13.57-.27 1.14-.4 1.72q-.27 1.095-.54 2.22c-.17.73-.35 1.46-.53 2.22-.53 1.84-.53 1.84-1.53 2.84-.07 1.36-.09 2.71-.06 4.07l.06 3.93h-2l-1 8h-2v8l-3 1v10h-3v11h-2c-.05.71-.1 1.42-.15 2.16-.07.92-.15 1.83-.23 2.78-.07.92-.14 1.83-.21 2.78-.13.75-.27 1.51-.41 2.28l-2 1v11l-3 1v13l-3 1c-.06 1-.12 2-.18 3.03-.09 1.29-.17 2.58-.26 3.91l-.24 3.9c-.32 3.16-.32 3.16-1.32 4.16-.24 3.21-.4 6.42-.52 9.63-.09 1.8-.28 3.59-.48 5.37l-2 1-.06 1.81c-.1 2.69-.21 5.38-.32 8.07l-.09 2.84-.12 2.71c-.01.42-.01.42-.09 2.51-.32 2.06-.32 2.06-2.32 4.06-.23 2.71-.23 2.71-.2 6.11.01.6.01.6.02 3.67.02 1.27.04 2.54.05 3.85l.03 3.87c.02 3.17.06 6.34.1 9.5h-2v93h2c-.01.41-.01.41-.05 2.44-.06 3.62-.1 7.25-.14 10.88-.02 1.26-.05 2.52-.07 3.82-.01.61-.01.61-.03 3.67-.01.55-.01.55-.05 3.38.34 2.81.34 2.81 1.67 4.7 1.67 1.11 1.67 1.11 4.67 1.11v-11h2l1-8h2l1-10h2v-9h3v-8h2c.15-.56.15-.56.94-3.43 1.06-3.57 1.06-3.57 2.06-4.57q.06-3 0-6h3v-8h3c.14-1.13.29-2.26.44-3.43.56-3.57.56-3.57 1.56-4.57q.06-3 0-6h3v-5h3v-8h2l1-6h2v-5h3v-6h3v-5h2v-6l3-1 1-6h2v-4h2c.06-.32.06-.32.37-1.93.21-.68.42-1.36.63-2.07l2-1v-5h3v-6h3c1.26-2.9 2-4.79 2-8h3v-5h3c2.5-3.33 3-4.73 3-9h2v-2h2l1-6h3v-3h2l1-5h2v-3h3c2.8-2.9 3-3.78 3-8h2c1.62-1.37 1.62-1.37 3-3v-2h3v-3h2c.31-.56.31-.56 1.87-3.43 1.88-3.44 1.88-3.44 4.13-4.57v-3h3c.33-.82.33-.82 2-5h3v-3h3v-3h3v-2h2c.56-.74 1.11-1.48 1.69-2.25 2.82-3.36 5.43-4.73 9.31-6.75v-2h3v-3h3v-3h3v-2l5-1v-2l3-1v-2h5v-3h3v-2h5v-3h5l1-2c2.56-.62 2.56-.62 5-1v-3h5v-2h6v-3c.74.05 1.48.09 2.25.13 2.84-.13 4.34-.7 6.75-2.13 1.56 3.13 1.4 6.58 1 10l-2 3c-.13 2.69-.13 2.69 0 5h-3v8h-3v9h-2c-.03.32-.03.32-.15 1.94-.07.82-.15 1.65-.23 2.5-.03.41-.03.41-.21 2.5-.13.68-.27 1.36-.41 2.06l-2 1c-.35 1.82-.35 1.82-.5 4-.16 2.19-.16 2.19-.5 4l-2 1v10h-2c-.05.71-.1 1.42-.15 2.16-.07.92-.15 1.83-.23 2.78-.07.92-.14 1.83-.21 2.78-.13.75-.27 1.51-.41 2.28l-2 1c-.35 2.91-.35 2.91-.5 6.5-.16 3.6-.16 3.6-.5 6.5l-2 1v13h-3v17h-2c-.03.64-.03.64-.15 3.84-.07 1.66-.15 3.32-.23 4.98l-.09 2.52-.12 2.43-.09 2.24c-.32 1.99-.32 1.99-2.32 4.99-.32 2.82-.32 2.82-.42 6.2-.01.61-.01.61-.11 3.67-.02.63-.02.63-.1 3.82-.03 1.28-.07 2.55-.11 3.86-.1 3.15-.18 6.3-.26 9.45l-2 1v75l3 1-.03 2.45c-.04 3.64-.07 7.29-.1 10.93 0 .63 0 .63-.05 3.85 0 .61 0 .61-.02 3.67l-.03 3.4c.23 2.7.23 2.7 2.23 4.7.28 2.88.46 5.68.56 8.57.32 8.31.32 8.31 1.44 9.43.24 2.7.42 5.37.56 8.07.04.76.09 1.51.13 2.3.11 1.88.21 3.75.31 5.63h3v13l2 1c.41 2.29.41 2.29.62 5.07.08.92.15 1.84.23 2.78l.15 2.15h2l1 11h2v11h3v8l2 1c.37 2.33.71 4.67 1 7l1 1c.37 2.33.7 4.67 1 7l3 1v8h3v8h3l-.06 2.44c.06 2.56.06 2.56 1.06 3.56.37 2.33.7 4.67 1 7h3v6l2 1c.82 2.22.82 2.22 1.56 4.94 1.37 4.92 1.37 4.92 2.44 7.06h2v6h3v5l2 1c.62 2.57.62 2.57 1 5h2v5h3v5l2 1c.33 1.67.67 3.34 1 5l2 1c1.05 2.31 2.06 4.65 3 7h3v5l3 1v5h2v3h3v5h3v3h2l1 5h2v4h2l2 4v-2h5v-3h2v-3h3v-2h3v-3h3v-3c.8-.28 1.61-.57 2.44-.87 2.56-1.13 2.56-1.13 3.56-3.13 2.06-1.12 2.06-1.12 4-2v-2l3-1v-2l3-1 1-3 2-1v-3h2v-2l3-1v-2h3v-3h2v-3h3v-3h3c2.11-2.88 3-4.38 3-8h2v-2h3v-3h3v-5h2v-3h3l1-5h2v-3l3-1v-4h2l1-3 2-1c2.01-2.93 3-4.39 3-8h2c.12-.63.25-1.27.37-1.93.21-.68.42-1.36.63-2.07l2-1c.16-.66.33-1.32.5-2 .16-.66.33-1.32.5-2l2-1v-3h3v-6h2v-5h3v-6h3v-5h2c1.11-3.25 2.13-6.48 3-9.81.33-1.05.66-2.1 1-3.19l2-1v-5h3v-8h2v-6l3-1v-7h3c1.36-6.32 2.38-12.56 3-19h2l1-10h2c.05-.78.1-1.56.15-2.37.07-1.01.15-2.02.22-3.06.07-1.01.14-2.02.21-3.06.14-.83.28-1.65.42-2.51l2-1v-13h2l1-16h2l1-24h2l1-14h3l1 5h3l-.03 1.98c-.04 2.94-.07 5.89-.1 8.84-.01 1.02-.03 2.05-.05 3.1 0 .98-.01 1.97-.02 2.98l-.03 2.74c.23 2.36.23 2.36 2.23 5.36.32 2.27.32 2.27.41 4.89l.12 2.84c.02.49.02.49.09 2.96l.12 3c.1 2.44.18 4.87.26 7.31h2v24l3 1v23l3 1v22h2c.02.73.05 1.45.07 2.19.12 3.25.24 6.5.37 9.75.04 1.14.07 2.27.12 3.45.04 1.07.08 2.15.12 3.27.04 1 .08 2 .11 3.03.21 2.31.21 2.31 1.21 3.31.16 1.78.25 3.57.32 5.35l.12 3.27.12 3.45c.04 1.14.09 2.28.13 3.45.11 2.83.21 5.66.31 8.48h3l-.03 1.98c-.04 2.94-.07 5.89-.1 8.84-.01 1.02-.03 2.05-.05 3.1 0 .98-.01 1.97-.02 2.98l-.03 2.74c.23 2.36.23 2.36 2.23 5.36.32 2.27.32 2.27.41 4.89l.12 2.84c.02.49.02.49.09 2.96l.12 3c.1 2.44.18 4.87.26 7.31h2v24l2 1 1 24h3l1-64 2-1c.02-.96.05-1.92.07-2.92l.3-10.69c.04-1.55.09-3.09.13-4.64.05-2.21.12-4.43.18-6.65.02-.69.04-1.39.05-2.1.15-4.88.15-4.88 1.27-6 .16-1.56.25-3.12.32-4.69l.12-2.86.12-3.01c.04-1 .09-1.99.13-3.02.11-2.47.21-4.94.31-7.42l2-1 1-20 2-1c.28-2.69.47-5.3.56-8 .32-7.88.32-7.88 1.44-9 .37-2.5.7-4.99 1-7.5.86-7.36.86-7.36 2-8.5.28-3.06.45-6.13.62-9.21.38-2.79.38-2.79 2.38-4.79.19-2.6.19-2.6.12-5.62-.01-.5-.01-.5-.05-3.04-.02-.77-.05-1.54-.07-2.34l3-1v-12h2l.15-2.15c.07-.92.15-1.84.22-2.78.04-.46.04-.46.21-2.78.14-.75.28-1.51.42-2.29l2-1v-11h3v-11h3c.14-1.29.29-2.59.44-3.93.43-3.94.43-3.94 1.56-5.07.28-2.32.45-4.63.62-6.96.12-.67.25-1.34.38-2.04l2-1v-8h3c.14-1.29.29-2.59.44-3.93.43-3.94.43-3.94 1.56-5.07.23-1.51.41-3.03.56-4.56.08-.82.17-1.65.26-2.5.06-.64.12-1.28.18-1.94h2c.12-1.11.25-2.22.37-3.37.63-3.63.63-3.63 2.63-5.63.69-2.32 1.36-4.65 2-7l1-1q.06-3 0-6h2c.12-1.13.25-2.26.37-3.43.21-1.18.42-2.35.63-3.57l2-1c.16-1.15.33-2.31.5-3.5.16-1.15.33-2.31.5-3.5l2-1v-6h2l1-8h2v-5h3v-8h3v-6h2v-5h3l1-8h2v-6h2l1-5h2v-6h3v-5h3v-6h2v-5h3c.12-.8.25-1.6.37-2.43.21-.85.42-1.69.63-2.57l2-1v-5h3v-5h2v-6h3v-5h3v-6h2c2.04-2.9 3-4.4 3-8h3v-5h3v-6h2l1-5h2v-3h3v-5h2l-1-3c-.72.64-1.45 1.28-2.19 1.94-2.79 2.05-4.43 2.68-7.81 3.06v3h-5v3h-5v2h-4l-1 2c-2.06.63-2.06.63-4 1v3h-5v2l-5 1v2h-6v3h-3v2l-5 1v2h-5l-1 2c-2.56.63-2.56.63-5 1v3c-.37-.04-.37-.04-2.25-.25-3.58.33-4.31 1.74-6.75 4.25-2.75.75-2.75.75-5 1v3h-5v3h-5v2c-.37.07-.37.07-2.25.38-2.58.59-4.5 1.26-6.75 2.62l-1 2c-2.32.41-4.66.75-7 1 .11-2.12.24-4.25.37-6.37.04-.59.04-.59.21-3.59.42-3.04.42-3.04 2.42-5.04.19-2.82.19-2.82.12-6.12-.01-.55-.01-.55-.05-3.32-.02-.84-.05-1.69-.07-2.56h3v-14h3v-13h2v-11l3-1v-12l3-1c.06-.63.12-1.27.18-1.93.09-.83.17-1.65.26-2.5.08-.83.16-1.65.24-2.5.32-2.07.32-2.07 1.32-3.07.28-2.05.45-4.11.62-6.18.12-.6.25-1.2.38-1.82l2-1c.34-2.25.34-2.25.5-5 .15-2.75.15-2.75.5-5l2-1v-8h3v-8h2c.13-.71.26-1.42.4-2.15.18-.92.35-1.84.54-2.78.17-.92.34-1.84.52-2.78.54-2.29.54-2.29 1.54-3.29.14-1.15.29-2.31.44-3.5.18-1.15.37-2.31.56-3.5l2-1c.2-1.63.4-3.26.59-4.9.63-3.2 2.05-5.96 3.43-8.9 1.6-3.59 2.51-7.34 3.47-11.15.45-1.7.97-3.37 1.51-5.05l2-1v-7h2l.37-3.43c.21-1.18.42-2.35.63-3.57l2-1v-6l3-1v-7h2c1.64-3.57 2.91-6.48 3.56-10.37.15-.87.29-1.73.44-2.63l2-1v-5h3v-8h2c.12-.8.25-1.6.37-2.43.21-.85.42-1.69.63-2.57l2-1v-5h3l.37-3.43c.21-1.18.42-2.35.63-3.57l2-1c1.55-3.78 2.24-6.91 2-11h3c.12-.8.25-1.6.37-2.43.21-.85.42-1.69.63-2.57l2-1v-5h2v-5h3v-6h3c1.27-3.64 2.33-7.19 3-11h2v-5h3v-6h3v-5h2l1-5h2c.12-.8.25-1.6.37-2.43.21-.85.42-1.69.63-2.57l2-1v-5h3v-3h2v-5l3-1v-5h3v-5h3v-3h2v-5l3-1c.37-1.32.7-2.65 1-4l2-1v-3h2c.12-.63.25-1.27.37-1.93.21-.68.42-1.36.63-2.07l2-1v-3h3v-5h3c1.76-3.08 2-4.23 2-8h3l1-5h2v-4h2v-2h3c.06-.74.12-1.48.19-2.25.81-2.75.81-2.75 3.18-4.62 3.4-2.75 4.03-5.1 5.63-9.13l2-1v-2h3c.08-.74.16-1.48.25-2.25.89-3.27 2.31-4.47 4.75-6.75v-2h3v-5h3v-3h2v-3h3v-3h3v-5h3v-3h2c1.62-1.37 1.62-1.37 3-3v-2h3v-3h2v-3l3-1 1-3 2-1v-3h3v-3h2v-2h3v-3h3v-3h2c1.62-1.37 1.62-1.37 3-3v-2h3v-3h3v-3h2c1.62-1.37 1.62-1.37 3-3v-2h3v-3h3v-3h2v-2h3v-3h3v-3h3v-2c.49-.16.49-.16 3-1v-2h5v-3h2v-3h3v-2h3v-3h3v-3h5v-3h3v-2h2v-3c.58-.12 1.15-.24 1.75-.37 2.27-.63 4.17-1.51 6.25-2.63v-2h3v-3c.58-.12 1.15-.24 1.75-.37 3.83-1.07 6.68-2.54 9.25-5.63v-2h6v-3h2l1-2c.78-.14 1.57-.28 2.37-.43 2.89-.62 3.87-1.25 5.63-3.57v-2h5v-3h5v-3h3v-2h5l1-3h5v-3h5l1-2c2.56-.62 2.56-.62 5-1v-2h5v-3h6v-3h5v-2h6v-3h5l1-3h-6v-3c-.93-.06-1.85-.12-2.81-.18-1.2-.08-2.39-.17-3.63-.25-1.19-.08-2.39-.17-3.62-.25-2.94-.32-2.94-.32-3.94-1.32-2.18-.23-4.37-.41-6.56-.56-1.2-.08-2.4-.17-3.63-.25-.93-.06-1.86-.12-2.81-.19v-2c-.93-.04-1.85-.09-2.81-.14-1.2-.08-2.39-.15-3.63-.23-1.19-.07-2.39-.14-3.62-.21-.97-.14-1.94-.27-2.94-.42l-1-2h-16v-3l-3.47-.18c-1.49-.08-2.98-.17-4.47-.25l-2.29-.12c-5.66-.33-5.66-.33-6.77-1.45-1.34-.15-2.69-.25-4.04-.31-.81-.04-1.61-.09-2.45-.13l-2.57-.12c-.86-.04-1.71-.08-2.59-.13-2.12-.11-4.23-.21-6.35-.31l-1-2-21-1-1-2c-.44-.01-.44-.01-2.65-.07l-9.69-.3-4.2-.12c-2-.06-4.01-.12-6.02-.19-1.21-.04-2.42-.07-3.67-.11-2.77-.21-2.77-.21-3.77-1.21a99 99 0 0 0-5.16-.12c-.56 0-.56 0-3.39-.01-1.24 0-2.48 0-3.76.01-1.29-.01-2.59-.01-3.92-.01h-40.62c-7.23.01-14.47.01-21.71 0h-29.74c-4.13-.01-8.26 0-12.39.01-1.24-.01-2.48-.01-3.76-.01-1.12 0-2.24 0-3.39.01h-2.96c-2.2.12-2.2.12-3.2 1.12"/><path fill="#0046aa" d="M1237 237h10v17h2c1.25 2.5 1.11 4.21 1.1 7.01-.01.98-.01 1.97-.01 2.99l-.03 3.12c0 1.05-.01 2.09-.01 3.16-.01 2.57-.03 5.15-.05 7.72l3 1c.03.63.05 1.26.08 1.91.11 2.84.23 5.69.36 8.53.04.99.08 1.98.12 3.01l.12 2.86c.04.87.08 1.75.11 2.65.21 2.04.21 2.04 1.21 3.04.09 1.71.11 3.42.1 5.13-.01 1.03-.01 2.07-.01 3.13l-.03 3.3c0 1.09-.01 2.19-.01 3.31-.01 2.71-.03 5.42-.05 8.13h3v22l3 1v23h2c1.35 2.71 1.07 5.01 1 8h5v3h10l1 2c1.85.41 1.85.41 4.06.62.65.07.65.07 3.94.38v2l2.88-.06c3.12.06 3.12.06 5.12 1.06v2h8v3h8v3h8v2h6l1 2c2.32.41 4.66.74 7 1v3c1.01-.06 2.02-.12 3.06-.19 4.49.22 6.95 1.24 10.94 3.19v2l7 1v2h6v3h6v2l7 1v2h6v3h6v2l5 1v2h6v3h5v3h6v2l5 1v2h5l1 3h5v3h5v2c4.02.84 7.02 1.05 11 0v-2h3v-3h3v-3c2.89-2.11 4.38-3 8-3v-2h3v-3h3v-3c2.65-1.08 5.28-2.09 8-3v-2h2l1-3h2v-2l6-1v-2h2v-3h3v-3c5.75-3 5.75-3 8-3v-2h3v-3h3l1-3c2.6-1.65 3.86-2 7-2v-3h3v-3h2v-2c5.75-3 5.75-3 8-3v-3h3l1-3h2v-2h5v-3h3v-3h3l1-3h2v-2h5v-3h3v-3c1.68-1.39 1.68-1.39 3.88-2.69.71-.43 1.43-.87 2.17-1.32 1.95-.99 1.95-.99 3.95-.99l1-3h2l1-3h2v-2h5v-3h3v-3h3v-2c1.19-1.63 1.19-1.63 3-3 2.69-.19 2.69-.19 5 0v-3h3v-3h5v-2c.8-.31 1.61-.62 2.44-.94C1595 325 1595 325 1596 324c1.67-.04 3.33-.04 5 0l1-3h13v-2c6.05-.88 10.19-1.09 16 1 3.99.47 7.99.75 12 1l1 3h6v3h5v2h5l1 3h2c1.62 1.38 1.62 1.38 3 3v2l3 1v2h3v3c.59.27 1.18.55 1.79.83 5.68 3 9.96 7.81 13.95 12.75C1689 358 1689 358 1691 359v3c.29.13.29.13 1.75.81 2.32 1.23 4.29 2.44 6.25 4.19v3h3c5 5.35 5 5.35 5 8h3v3c.32.13.32.13 1.94.81C1714 383 1714 383 1715 386h3v3h3v3h2v3h3v2h3v3l3 1v2h2v2h3v3h3v3h2v3h3v2h3v3h3v3h2v2l3 1v2h3v3h2v3h3v2h3v3h3v3h2v3h3v2h3v3h2v3h3v2h3v3h3v3h2v3h3v2h3v3l3 1v2h2v2h3v3h3v3h2v3h3v2h3v3h3v3h2v2l3 1v2h3v3h2v3h3v2h3v3h3v3h2v3h3v2h3v3h2c1.62 1.38 1.62 1.38 3 3v2h3v3h3v3h2v3h3v2h3v3h2l1 5h2c.06.4.06.4.38 2.44.2.84.41 1.69.62 2.56l2 1v5l3 1c.06.85.12 1.71.18 2.59.09 1.1.17 2.21.26 3.35.08 1.1.16 2.2.24 3.34.32 2.72.32 2.72 1.32 3.72.09 1.34.11 2.69.1 4.04-.01.8-.01 1.61-.01 2.45l-.03 2.57c0 .86-.01 1.71-.01 2.59-.01 2.12-.03 4.23-.05 6.35h-2v11l-3 1v7l-3 1c-.12.76-.25 1.53-.38 2.31C1869 609 1869 609 1867 612h-2v3c-.33.16-.33.16-2 1-.62 2.06-.62 2.06-1 4h-3v3h-2l-1 3h-2l-1 5h-2v3h-3v3h-2v2h-3v5l-3 1v2h-2v3h-3v3h-3v5h-3v3h-2v3h-3c-.12.58-.25 1.15-.38 1.75-.63 2.27-1.51 4.18-2.62 6.25h-2l-1 3h-2v2h-3v5l-3 1v2h-2v3h-3v3h-3c.03.38.03.38.19 2.31-.19 2.69-.19 2.69-1.57 4.5C1799 699 1799 699 1797 699v3h-3c-.12.58-.25 1.15-.38 1.75-.63 2.27-1.51 4.18-2.62 6.25h-2l-1 3h-2v2h-3c.04.37.04.37.25 2.25-.32 3.56-1.63 4.45-4.25 6.75l-1 2h-3v3h-3v5h-2l-1 3h-2v3h-3v3h-3v5h-2l-1 3h-2l-1 3h-2c-.14.64-.29 1.28-.44 1.94C1752 758 1752 758 1751 759c-.26 4.03-.29 5.56 2 9 .12 2.69.12 2.69 0 5h3v5l3 1v5h2v5h3v5l3 1v5l3 1v4h2v6h3v5l3 1v5h2v8h3v5l3 1v5h2c1.35 2.71 1.07 5.01 1 8h2v5l3 1v7l3 1c.95 1.93.95 1.93 1.69 4.31l.76 2.37c.55 2.32.55 2.32.55 6.32h2v8h3v8l3 1c.14 1.13.29 2.27.44 3.44.56 3.56.56 3.56 1.56 4.56.14 2.67.04 5.32 0 8h3v8l3 1 .15 1.93c.07.83.15 1.66.23 2.51.06.82.13 1.64.21 2.49.13.69.27 1.37.41 2.07l2 1v5l7 1v2h22v2c1.31-.01 2.63-.02 3.98-.04 1.74 0 3.47-.01 5.21-.02l2.62-.03c4.19-.01 8.1.01 12.19 1.09v2h22l1 3c.31-.01.31-.01 1.88-.03q4.215-.06 8.43-.09l2.96-.06c.47 0 .47 0 2.84-.02.44 0 .44 0 2.62-.03 2.27.23 2.27.23 5.27 2.23 2.25.3 2.25.3 4.85.38.93.03 1.87.07 2.83.1.97.03 1.94.06 2.94.08 1.93.06 3.86.13 5.79.19.86.03 1.71.05 2.6.08 1.99.17 1.99.17 2.99 1.17 1.54.13 3.08.2 4.62.25.94.03 1.87.06 2.84.1 1.98.06 3.96.11 5.95.17.93.03 1.87.07 2.84.1.86.03 1.72.05 2.61.08 2.14.3 2.14.3 4.14 2.3 2.12.3 2.12.3 4.72.38.93.03 1.86.07 2.82.1.98.03 1.95.06 2.96.08 1.93.06 3.85.13 5.78.19.86.03 1.71.05 2.6.08 2.12.17 2.12.17 4.12 1.17v2h21l1 3h11v2l7 1v2h4v3h5v2h3v3h3v3h2v3h3v2h3v3h2c2.15 3.86 3.39 6.55 3 11h3v6h2c1.26 2.51 1.13 4.22 1.13 7.03 0 1.07.01 2.15.01 3.25 0 1.19 0 2.37-.01 3.6 0 .62 0 .62.01 3.79.01 3.49.01 6.98.01 10.47 0 3.76 0 7.52.01 11.28 0 7.37.01 14.74.01 22.11v17.96c.01 16.96.02 33.93.02 50.89v5.55c-.01 14.85 0 29.71.02 44.56.01 15.24.02 30.48.02 45.72 0 8.56 0 17.12.01 25.68.01 7.29.01 14.57.01 21.86-.01 3.72-.01 7.44 0 11.17.01 4.02 0 8.05 0 12.08 0 1.18.01 2.37.01 3.59 0 1.07-.01 2.15-.01 3.25v2.82c-.25 2.34-.25 2.34-2.25 5.34-.38 1.66-.73 3.32-1 5h-3v6h-2l-1 5h-2v3h-3v3h-3v2h-2v3h-3v3h-3l-1 3h-4v2c-.8.31-1.61.62-2.44.94-2.56 1.06-2.56 1.06-3.56 2.06-1.67.04-3.33.04-5 0l-1 3h-10v2c-2.8.78-5.39 1.16-8.29 1.28-.8.04-1.59.08-2.41.11-1.67.08-3.34.15-5.01.22-6.19.29-6.19.29-7.29 1.39-1.71.09-3.42.11-5.13.1-.52 0-.52 0-3.13-.01l-3.3-.03c-1.09 0-2.19-.01-3.31-.01-2.71-.01-5.42-.03-8.13-.05l-1 3h-21v2c-3 1-4.97 1.12-8.11 1.1-.49 0-.49 0-2.97-.01l-3.11-.03c-1.03 0-2.07-.01-3.14-.01-2.55-.01-5.11-.03-7.67-.05v2l-21 1-1 2h-22v2c-2.5 1.25-4.21 1.11-7.01 1.1-.49 0-.49 0-2.99-.01l-3.12-.03c-1.05 0-2.09-.01-3.16-.01-2.57-.01-5.15-.03-7.72-.05v2c-2.73.91-4.58 1.17-7.41 1.28-.85.04-1.69.08-2.56.11-1.78.08-3.56.15-5.33.22-.85.03-1.69.07-2.55.11-.39.01-.39.01-2.34.09-1.81.19-1.81.19-2.81 1.19q-3 .06-6 0l.12 2.38c-.12 2.62-.12 2.62-2.12 4.62-.41 2.16-.41 2.16-.62 4.62-.08.82-.15 1.64-.23 2.48-.05.63-.1 1.25-.15 1.9h-3v9h-3v8h-2v7l-3 1v8h-3v8h-2c-.06.51-.06.51-.38 3.06-.6 3.82-1.49 7.26-2.62 10.94h-3v7l-3 1c.06.66.12 1.32.19 2-.26 4.09-1.65 7.21-3.19 11h-2v6h-3v6h-3v7h-2v5l-3 1v5l-3 1v5h-2v5l-2 1c-.62 2.56-.62 2.56-1 5h-3v5h-3v6h-2v5h-3v5l-3 1v5h-2c-.93 3.62-1.36 5.32.44 8.69.51.76 1.03 1.52 1.56 2.31v3h3v3h3v2h2c1.08 2.65 2.09 5.28 3 8l3 1v2l3 1v2h2v5h3v3h3v3h2v3h3v5h3v3h3c2 3 2 3 2 6h2c.05.32.05.32.31 1.94.23.68.46 1.36.69 2.06l3 1v2h2c2.65 2.12 3.25 3.77 4 7l2 1v3h3v3h2v3h3v5h3v3h3c1.05 1.64 2.05 3.3 3 5l2 1v5h3v2h2v3h3v5h3v3l3 1v2h2v3h3v5h3v3h2c1.51 1.39 1.51 1.39 3.12 3.25.54.6 1.08 1.21 1.64 1.83 1.24 1.92 1.24 1.92 1.24 5.92h3v2h2v3h3v4h2c.05.32.05.32.31 1.94.23.68.46 1.36.69 2.06l3 1c2.15 3.23 2.2 4.28 2 8h3v7c-3.29 1.1-4.71.8-8 0v-2l-5-1v-2h-3v-3h-6v-2l-4-1v-2h-4v-3h-5v-3c-.37.04-.37.04-2.25.25-3.58-.33-4.31-1.73-6.75-4.25-2.75-.75-2.75-.75-5-1v-3h-5v-2l-6-1v-2l-5-1v-2l-4-1v-2h-4v-2h-5l-1-3h-5v-3h-6v-2l-5-1v-2h-5l-1-3-7-1v-2h-6v-2h-5l-1-3h-5v-3c-1.01.06-2.02.12-3.06.19-4.49-.22-6.95-1.24-10.94-3.19v-2l-2.88.12c-3.12-.12-3.12-.12-5.12-2.12-2.62-.62-2.62-.62-5-1v-3h-8v-2h-6v-3h-8v-3h-8v-3h-8v-2h-8v-3h-8l-1-3h-8v-2l-3.88.06c-3.87.06-3.87.06-6.12-1.06v-2h-8l-1-3h-9l-1-3h-9v-2c-.77.01-1.54.02-2.34.04-.5 0-.5 0-3.04.02-.99.01-1.99.03-3.02.04-2.6-.1-2.6-.1-4.6-1.1v-2h-10l-1-3h-11v-2c-.76.01-1.52.02-2.3.04-.5 0-.5 0-3.01.02-.99.01-1.97.03-2.99.04-2.7-.1-2.7-.1-5.7-1.1v-2c-.99.01-1.97.02-2.99.04-1.28 0-2.56.01-3.89.02-1.27.01-2.55.03-3.86.04-3.26-.1-3.26-.1-5.26-1.1v-2h-15l-1-3h-17v-2h-21l-1-3h-26l-1-3h-46v-2h-2.79c-22.42.02-44.84.04-67.25.05-10.85.01-21.69.01-32.53.03-9.45.01-18.9.01-28.35.01-5 .01-10 .01-15 .02h-14.14c-1.72 0-3.45.01-5.18.01h-7.08c-.68 0-1.36.01-2.07.01-11.52-.04-11.52-.04-13.61-2.13a57 57 0 0 0-4.12-.19c-.88-.02-1.75-.03-2.65-.05-.95-.01-1.9-.03-2.88-.04l-2.94-.06c-3.12-.06-6.23-.11-9.35-.16-4.09-.07-8.18-.14-12.27-.22-.95-.01-1.9-.03-2.88-.04-.88-.02-1.76-.03-2.66-.05-.77-.01-1.55-.03-2.35-.04-1.9-.15-1.9-.15-3.9-1.15v-2h-27v-3h-22v-2h-12l-2-4c2-2 2-2 5.62-2.12l3.38.12v-2h10l1-3h8l1-3h9l1-3c.99-.1 1.98-.21 3-.31 4.15-.59 9.98-1.67 13-4.69 1.67-.04 3.33-.04 5 0l1-3h7v-2l6-1v-2c.4-.06.4-.06 2.44-.38.84-.2 1.69-.41 2.56-.62l1-2c2.32-.7 4.66-1.37 7-2l1-1c1.67-.04 3.33-.04 5 0v-2h5v-3h6v-3h5l1-3c3-2 3-2 7-2l1-3h5v-3h5v-2h3v-3h5v-3h3v-2l6-1v-2h2l1-3h5v-3c3-2 3-2 6-2l1-3h4v-3h2l1-3c3-2 3-2 7-2v-3h3v-3h3v-2h3v-3h3v-3c6.63-3.88 6.63-3.88 10-5v-3h3v-3h3l2-5h3v-3h3v-3h3v-2h2v-3h3v-3h3v-3h2l1-5h2l1-3h2v-2h3v-3h2v-3h3l1-5h2v-3h2l1-3h2c1.41-2.64 2.37-5.07 3-8h3v-3h2l1-5h2v-3h3v-5h3v-3h2l1-5h2v-3h3c-.06-.7-.12-1.4-.19-2.12.23-3.53 1.48-5.82 3.19-8.88h2l1-5h2v-3h3v-6h2v-5h3v-5h3v-6h2l-.12-2.38c.12-2.62.12-2.62 2.12-4.62.4-1.99.74-3.99 1-6h3v-6h3v-8h2v-5l2-1c.41-1.85.41-1.85.62-4.06.13-1.3.25-2.6.38-3.94h3v-8h2l-.12-2.81c.12-3.19.12-3.19 2.12-6.19.41-2.26.41-2.26.62-4.69.08-.81.15-1.61.23-2.45l.15-1.86 3-1v-10l3-1c-.01-.71-.02-1.42-.04-2.15 0-.92-.01-1.84-.02-2.79-.01-.91-.03-1.83-.04-2.77.1-2.29.1-2.29 1.1-3.29.28-3.36.45-6.72.62-10.09.13-.96.25-1.92.38-2.91l2-1 1-17 3-1v-27h3v-52l-3-1v-27h-3l-.15-3.65c-.07-1.57-.15-3.15-.23-4.73-.01-.39-.01-.39-.09-2.4-.3-5.99-.3-5.99-2.53-8.22-.2-3.04-.2-3.04-.12-6.62.01-1.19.03-2.38.05-3.61.02-.91.05-1.83.07-2.77h-2v-11h-3v-11l-3-1c-.05-.63-.1-1.25-.15-1.9-.04-.41-.04-.41-.23-2.48-.06-.81-.13-1.62-.21-2.46-.41-2.16-.41-2.16-2.41-4.16-.12-3.62-.12-3.62 0-7h-2v-8h-3v-8l-3-1v-5h-2v-8h-3v-5l-3-1c-.74-2.31-1.41-4.65-2-7l-1-1c-.04-1.67-.04-3.33 0-5h-2v-5h-3v-6h-3v-5h-2v-6h-3c-.12-.64-.25-1.28-.38-1.94-.2-.68-.41-1.36-.62-2.06l-2-1v-3h-2l-1-5h-2v-6h-3v-2l-3-1v-5h-2v-3h-3v-5h-3v-3h-2l-1-5h-2v-3h-3c-.12-.64-.25-1.28-.38-1.94-.2-.68-.41-1.36-.62-2.06l-2-1v-3l-3-1v-2h-2v-3l-3-1v-4h-3v-3h-2v-2h-3v-3l-3-1v-2h-2c-2.04-2.91-3-4.4-3-8h-3v-3h-3v-2h-2v-3h-3v-3h-3v-2l-3-1v-2h-2v-3h-3v-3h-3v-2h-2c-2.13-1.88-2.13-1.88-4-4v-2h-4c-1.75-1.38-1.75-1.38-3-3v-2h-3v-3h-3v-3h-3v-2l-5-1v-2l-3-1v-2h-2v-2c-2.65-1.08-5.28-2.09-8-3-1.69-1.38-1.69-1.38-3-3v-3l-2.31.12C1278 813 1278 813 1275 811v-3h-5l-1-3h-3v-3h-5v-2h-3v-3h-5v-3c-.73.05-1.45.1-2.2.16-3.22-.18-4.87-1.02-7.61-2.66-.79-.46-1.58-.93-2.4-1.41-.59-.36-1.18-.72-1.79-1.09v-3h-5v-3h-6v-2h-5v-3h-6l-1-2c-3.06-.62-3.06-.62-6-1v-2l-6-1v-2h-5l-1-3h-7l-1-3-2.44.06C1185 764 1185 764 1184 763c-2.33-.37-4.66-.7-7-1v-3h-8l-1-3c-.64.04-.64.04-3.88.25-4.8.02-8.21-1.36-12.55-3.29-4.09-1.53-8.23-1.78-12.57-1.96v-3c-.77.01-1.54.02-2.34.04-.5 0-.5 0-3.04.02-.99.01-1.99.03-3.02.04-2.6-.1-2.6-.1-4.6-1.1v-2c-1 .01-2 .02-3.03.04-.64 0-.64 0-3.91.02-1.29.01-2.57.03-3.9.04-3.16-.1-3.16-.1-4.16-1.1-2.46-.21-4.91-.38-7.38-.5-7.22-.37-7.22-.37-10.62-1.5v-2h-27c-.16-.5-.16-.5-1-3h-46l-1 3-2.43.06c-3.63.1-7.26.2-10.88.32-.63.01-.63.01-3.83.09l-3.66.12c-.56.01-.56.01-3.38.09C991 741 991 741 988 743c-2.77.14-5.43.19-8.19.12-.75 0-1.5-.01-2.27-.02-1.85-.03-3.69-.06-5.54-.1v2l-5-1v-6l3-1c1.58-2.55 2.37-5.08 3-8h2l1-5h2v-3h3v-5h2l1-3h2c-.06-.76-.12-1.53-.19-2.31.19-2.69.19-2.69 1.5-4.5C989 705 989 705 992 705v-5h2v-3c1.38-1.69 1.38-1.69 3-3h2c.06-.95.12-1.9.19-2.88.27-1.03.53-2.06.81-3.12 1.65-.7 3.32-1.37 5-2 .62-2.38.62-2.38 1-5 1.44-2.31 1.44-2.31 3-4h2v-2h2l1-5h2v-3h3v-3h3c.06-.29.06-.29.38-1.75.63-2.27 1.51-4.18 2.62-6.25h2v-3h3v-3h2l1-3h2l1-5h2v-3h3v-2h2v-3h3v-5h3v-3h2l1-3h2v-3h3l1-5h2v-3h2l1-3h2v-2h3c.06-.38.06-.38.38-2.31.62-2.69.62-2.69 2.62-5.69h2v-3h3v-3h3v-3h2l1-5h2v-3h3v-2h3v-3h2l1-5h2v-3h3v-3h2l1-3h2l1-5h2v-3h3v-3h2v-2h3v-6h3v-5h2l1-6h2v-9l3-1v-20l-3-1v-10l-3-1v-4h-2v-5l-3-1v-3h-2l-1-5h-2v-2h-3v-3h-3v-3h-3v-2l-5-1v-2h-3l-1-2c-3.85-1.81-7.91-2.88-12-4v-2h-33v2h-8v3h-6v3h-5l-1 3c-3 2-3 2-7 2l-1 3h-5v3h-5v2c-.72.25-1.44.5-2.19.75-2.81 1.25-2.81 1.25-5.37 3.37C998 479 998 479 994 479v2l-5 1v2h-6v3c-2.89 2.11-4.38 3-8 3v2h-6l-1 3-3-1c-1.34-6.23-1.34-6.23.31-9.94.56-.68 1.12-1.36 1.69-2.06h2l1-6h3v-5h2v-5l3-1 1-5h2v-3h2l1-5h2c.12-.76.25-1.53.38-2.31C987 447 987 447 989 444h3v-6h2l1-5h2v-3h3c-.06-.76-.12-1.53-.19-2.31.19-2.69.19-2.69 1.57-4.5C1003 422 1003 422 1005 422l1-5h2v-3h3c-.1-.7-.21-1.4-.31-2.12.45-4.2 2.49-5.79 5.31-8.88l1-2h2l1-4h2v-2h2l1-5h2v-3c1.38-1.69 1.38-1.69 3-3h2c.12-.58.25-1.15.38-1.75.63-2.27 1.51-4.18 2.62-6.25h3v-3h3v-3h2l1-3h2l1-5h2v-3h3v-2h2v-3h3v-3h3v-3h2v-2h3v-3h3v-3c1.38-1.69 1.38-1.69 3-3h2v-2h3v-3h3v-3h2v-2h3v-3h3v-3h3v-3h2v-2h3v-3h3l1-3h2v-2h5v-3h3v-3h2v-2l4-1v-2h4l1-3h2l1-3c2.6-1.65 3.86-2 7-2v-3c3.33-2.5 4.73-3 9-3v-3c2.91-1.26 4.8-2 8-2v-3h5v-3c1.11-.45 2.23-.91 3.38-1.38C1159 269 1159 269 1161 267c2.62-.12 2.62-.12 5 0v-3h5l1-3h5v-2h5l1-3c3-1.12 3-1.12 6-2l1-1q3-.06 6 0l1-3c4.09-1.81 7.56-2.21 12-2l1-3h8l1-3c1.13-.14 2.27-.29 3.44-.44C1226 241 1226 241 1227 240c1.69-.07 3.38-.08 5.06-.06.92.01 1.84.02 2.79.02.71.02 1.42.03 2.15.04z"/><path fill="#f05a23" d="M117 1128h2c0 .77 0 1.55-.01 2.35-.02 9.82-.04 19.64-.05 29.46 0 .78 0 1.56-.01 2.36-.02 22.96.08 45.89 1.07 68.83h1c1.24 6.66 1.09 13.25 1 20h2c1.79 3.58 1.41 7.79 1.62 11.74.37 3.14 1.14 5.38 2.38 8.26.35 2.33.69 4.66 1 7l1 1c.07 2.53.09 5.03.06 7.56 0 .71-.01 1.42-.01 2.16-.01 1.76-.03 3.52-.05 5.28h2c1.88 7.01 3.4 13.76 4 21l2-1a246 246 0 0 0 .88 4.94c.16.91.32 1.83.49 2.77.21.76.41 1.51.63 2.29l2 1c.54 2.69.98 5.35 1.38 8.06 1 6.41 2.45 11.23 5.62 16.94.34 2.33.67 4.67 1 7 .5.33.5.33 3 2 .73 2.02.73 2.02 1.19 4.38.16.77.31 1.54.48 2.33.33 2.29.33 2.29.33 6.29.62.22 1.23.44 1.87.66 2.9 1.83 3.23 3.54 4.25 6.78 1.07 3.31 1.94 5.64 3.88 8.56.56 2.02.56 2.02 1 4.25.17.79.33 1.58.5 2.39.17.78.33 1.56.5 2.36.54 2.44 1.16 4.63 2 7l3 1v2h2c.27.59.54 1.18.82 1.78 1.26 2.73 2.53 5.44 3.8 8.16.43.92.86 1.85 1.3 2.8 2.58 5.49 5.39 10.48 8.96 15.39C190 1437 190 1437 190 1440h2c.27.78.53 1.56.8 2.37l1.08 3.07c.17.5.17.5 1.05 3.06 1.07 2.5 1.07 2.5 3.07 3.5.98 1.76 1.96 3.53 2.91 5.3 1.09 1.7 1.09 1.7 3.34 3.26.58.48 1.16.95 1.75 1.44.25 3.19.25 3.19 0 6l3 1c1.87 2.33 1.87 2.33 3.88 5.25 4.35 6.19 4.35 6.19 7.06 8.75 2.06 2 2.06 2 3.06 5l3 1c2.34 3.18 4.34 6.41 6 10h2c1.37 1.64 2.69 3.31 4 5l2.12 2c1.88 2 1.88 2 2.88 4.62 1 2.38 1 2.38 2.89 3.28 2.56 1.33 3.39 2.64 4.86 5.1.43.7.86 1.4 1.3 2.12.95 1.88.95 1.88.95 3.88h2c1.63 1.38 1.63 1.38 3 3v2l3 1v2h2c4.77 4.3 4.77 4.3 6 8 1.32.68 2.66 1.35 4 2 2.25 2 2.25 2 4 4v2c.56.26 1.12.52 1.7.78 2.57 1.36 4.75 2.95 7.05 4.72.8.61 1.6 1.22 2.42 1.84.61.55 1.21 1.1 1.83 1.66v2c.76.14 1.53.29 2.31.44 5.12 1.07 7.03 2.9 10.69 6.56.89.47 1.77.95 2.69 1.44 2.31 1.56 2.31 1.56 3.06 4.44 1.71 4.26 4.19 5.01 8.25 6.85 2 1.27 2 1.27 2.78 3.42.03.3.03.3.22 1.85h4v2c.56.1 1.12.21 1.7.32 2.72.81 4.69 2.04 7.05 3.62.8.52 1.6 1.05 2.42 1.59L337 1594v2c.7.25 1.4.49 2.12.75 3.28 1.42 6.02 3.12 8.88 5.25v2c.29.07.29.07 1.77.39 6.88 1.87 13.73 6.16 19.23 10.61v2c.78.12 1.57.25 2.38.38 2.62.62 2.62.62 4.62 2.62 1.59.68 3.18 1.35 4.78 2 4.55 2.05 8.87 4.57 13.22 7v2c.68.1 1.37.2 2.07.31 3.51.83 6.49 2.21 9.74 3.75 1.16.55 2.33 1.1 3.52 1.66L412 1638v2c.85.1 1.7.19 2.57.29 3.87.8 6.8 2.2 10.31 4.02.61.32 1.23.64 1.87.96 2.52 1.3 5.04 2.62 7.55 3.94 5.38 2.79 10.98 4.81 16.7 6.79v2c.56.12 1.11.24 1.69.37 3.89.85 7.77 1.74 11.62 2.75 3.69.88 3.69.88 7.69.88-.4-12.75-.93-25.47-1.94-38.19-.07-.99-.15-1.99-.22-3.02-.6-7.13-.6-7.13-1.88-10.7-1.56-5.01-1.36-10.12-1.46-15.34-.25-12.14-.25-12.14-1.49-17.54-1.57-7.01-1.48-14.18-1.63-21.33l-.12-4.35c-.1-3.51-.18-7.02-.26-10.53h2v4c.28.1.28.1 1.69.62 5.29 3.15 7.79 7.56 9.31 13.38h2c3 5.75 3 5.75 3 8l3 1c.69 2.06.69 2.06 1 4h2v5h2l1 5h2c1.63 1.31 1.63 1.31 3 3v3h2l1 5h2c1.63 1.31 1.63 1.31 3 3v3l3 1c1.54 2.03 1.54 2.03 3.06 4.5 2.74 4.4 2.74 4.4 4.94 5.5.43.95.87 1.9 1.31 2.88 1.92 3.55 3.27 4.16 6.69 6.12 5 5.03 5 5.03 5 8h2l2 5h2v3l3 1v4l3 1c4 5.37 4 5.37 4 8l3 1c1.69 1.38 1.69 1.38 3 3v3l3 1v2h2l.88 1.94C556 1663 556 1663 558 1664v2h2v3h2v2c.62.25 1.24.49 1.88.75 2.51 1.48 2.88 2.69 4.12 5.25l3 1c1.19 2.56 1.19 2.56 2 5h3c1.69 1.64 3.35 3.31 5 5 .68.31 1.35.62 2.05.93 2.39 1.31 2.77 2.26 3.76 4.76 1.89 4.17 4.42 6.82 7.8 9.86C596 1705 596 1705 596 1707h2c1.62 1.38 1.62 1.38 3 3v2l3 1v2l3 1 2 3 3 1v3l3 1v2h2c1.62 1.38 1.62 1.38 3 3v2l3 1v2c.64.25 1.28.49 1.94.75 2.06 1.25 2.06 1.25 2.81 3.37.04.31.04.31.25 1.88l2.19.12c3.92 1.22 5.31 3.72 7.81 6.88l3 1v3l3 1v2c.8.27 1.61.54 2.44.81.42.2.42.2 2.56 1.19l1 3c.36.04.36.04 2.19.25 3.4.91 5.26 2.35 7.81 4.75v2h3c1.02 1.32 2.02 2.65 3 4l3 1c5 5.35 5 5.35 5 9l3 1v3l2.31.31c3.01.77 3.6 1.51 5.69 3.69 1.25.98 2.53 1.94 3.81 2.88 3.51 2.59 6.84 5.33 10.19 8.12 2.14 1.57 4.29 3.13 6.46 4.67L707 1805v2c.51.23 1.02.45 1.55.69 3.43 1.83 6.53 4.06 9.7 6.31.65.45 1.3.9 1.97 1.37 1.63 1.16 3.21 2.39 4.78 3.63v2c.6.1 1.2.21 1.81.31 2.19.69 2.19.69 3.57 2.07 2.35 2.34 5.12 3.78 7.98 5.44.54.39 1.08.78 1.64 1.18v2h3v2c.72.25 1.44.49 2.19.75 3.08 1.37 5.22 3.11 7.81 5.25 1.67 1 3.33 2 5 3 1.65 1.15 3.3 2.32 4.94 3.5 3.57 2.53 7.12 4.58 11.06 6.5 1.75 1.62 1.75 1.62 3 3l2 1v2l2.25.31c2.95.74 4.53 1.64 6.75 3.69v2c.38.06.38.06 2.31.38 2.69.62 2.69.62 5.69 2.62v2l2.19.31c3.09.76 5.15 1.98 7.81 3.69 1.33.68 2.66 1.35 4 2v2c.56.1 1.11.21 1.69.31 2.8.83 4.82 2.14 7.31 3.69 2.99 1.69 5.99 3.34 9 5v2l2.26.37c2.62.6 4.27 1.32 6.55 2.69 4.38 2.53 8.85 4.82 13.38 7.06.67.34 1.35.68 2.05 1.02 1.3.65 2.61 1.3 3.91 1.94 2.62 1.3 5.24 2.61 7.85 3.92v2c.87.12 1.73.25 2.62.38 3.28.6 6.25 1.5 9.38 2.62v2c.72.29 1.44.58 2.19.88 2.6 1.04 5.21 2.08 7.81 3.12v2c.59.07 1.19.15 1.8.23 6.28.99 10.87 3.07 16.33 6.25 3.91 2.07 7.94 3.28 12.15 4.58 2.4.83 4.37 1.75 6.53 3.06 3.45 2.03 6.33 2.93 10.19 3.88v2c.87-.05 1.74-.1 2.64-.14 3.63.15 5.88.96 9.17 2.45 5.01 2.2 9.98 4.04 15.19 5.69v2l11 1v2l2.12.15c.91.07 1.82.15 2.76.23.45.03.45.03 2.74.21 2.38.41 2.38.41 4.38 2.41 2.62.62 2.62.62 5 1v1l5 1v2l11 1v2h7l1 2c2.29.41 2.29.41 5.06.62.92.08 1.84.15 2.79.23l2.15.15v2l9 1v2h13l1 4h-5v2H853v-2c-.64 0-.64 0-3.9.02-4.77.01-9.54.03-14.31.03l-6.19.03c-2.97.01-5.93.01-8.9.02-.93 0-1.85.01-2.8.01h-2.61c-.76.01-1.52.01-2.3.01C810 1975 810 1975 807 1974v-2c-.9.01-1.8.01-2.72.02-3.33.01-6.66.03-9.99.03l-4.32.03c-2.07.01-4.14.01-6.21.02-1.25 0-2.49.01-3.78.01C777 1972 777 1972 775 1971v-2h-25v-3h-22v-2c-1.12.01-2.24.02-3.39.04-1.48 0-2.95.01-4.42.02l-2.24.03c-3.25.01-5.84-.05-8.95-1.09v-2h-15l-1-3h-14v-2c-.9.01-1.81.02-2.74.04-.59 0-.59 0-3.57.02-1.17.01-2.35.03-3.55.04-3.14-.1-3.14-.1-6.14-1.1v-2h-11v-3h-13l-1-3h-11v-2h-10l-1-3h-10l-1-3h-10v-2l-9-1v-2h-9l-1-3h-8l-1-3h-8v-2h-7l-1-3h-8v-3h-8v-3h-8v-2h-6v-3h-8v-3c-.41.03-.41.03-2.5.19-4.38-.24-7.45-1.52-11.5-3.19v-2h-5v-3h-7l-1-3h-6v-2h-5v-3h-6v-3c-.68.06-1.36.12-2.06.19-3.86-.25-6.45-1.55-9.94-3.19v-2l-2.38.12C452 1885 452 1885 450 1883c-2.62-.62-2.62-.62-5-1v-3h-5v-2c-.7-.1-1.4-.21-2.12-.31-3.27-.78-5.93-2.11-8.88-3.69v-2h-3v-2l-6-1v-2h-5v-3h-5v-3c-.74-.12-1.49-.25-2.25-.38-2.55-.57-4.48-1.36-6.75-2.62v-2h-5v-3h-5v-3h-3v-2h-5l-1-3c-2.55-1.58-5.08-2.37-8-3v-2l-5-1v-2h-3v-3l-5-1v-2h-3v-2l-5-1v-2h-3v-3h-3v-2l-5-1v-2h-3v-3h-3l-1-2c-2.06-.62-2.06-.62-4-1v-2h-3v-3l-5-1v-2h-3c-1.69-1.38-1.69-1.38-3-3v-2h-3v-3l-5-1v-2h-3v-2l-3-1v-2h-2v-3l-5-1v-2h-3v-2h-3v-3h-3v-3h-3v-2h-2v-3h-3v-3l-5-1v-2h-3v-2l-3-1v-2l-3-1v-2h-2v-2l-3-1v-2h-3v-3h-3v-3h-2v-2h-3v-3h-3v-3h-2v-2l-3-1v-2h-3v-3h-3v-3h-2v-2h-3v-3h-3v-3h-2c-1.63-1.38-1.63-1.38-3-3v-2l-3-1v-2l-3-1v-2h-2c-.12-.64-.25-1.28-.38-1.94-.2-.68-.41-1.36-.62-2.06l-2-1v-3h-3v-3h-3v-2h-2v-3h-3v-3h-3v-3h-2v-5h-3v-3h-3v-2l-3-1v-2h-2c-2.04-2.91-3-4.4-3-8h-3v-3h-2v-3l-3-1v-4h-3v-3h-3v-3h-2v-5h-3v-3h-3v-5l-3-1v-2h-2v-3l-3-1v-4h-3v-3h-2v-5h-3v-4h-2c-.1-.64-.21-1.28-.31-1.94-.12-.34-.12-.34-.69-2.06l-3-1c-1.03-2.32-2.04-4.65-3-7l-2-1v-5h-3v-3h-2v-5h-3v-5l-3-1v-3h-2l-1-5h-2v-5h-3v-6h-3v-5l-3-1c-2-3-2-3-2-7l-3-1v-5l-3-1v-4h-2v-6h-3v-5h-3c-1.27-3.65-2.33-7.19-3-11h-2v-6h-2c-.16-1.15-.16-1.15-1-7l-3-1v-5h-2v-5h-3v-6l-3-1v-7h-3v-5h-2c-.12-1.13-.25-2.27-.38-3.44-.2-1.17-.41-2.35-.62-3.56l-2-1v-6l-3-1v-7h-2c-.06-.4-.06-.4-.38-2.44-.2-.84-.41-1.69-.62-2.56l-2-1v-8h-3v-8h-3c-1.59-4.87-2.21-8.81-2-14h-3v-9l4-1c.16.49.16.49 1 3h3v2l3 1v2h2c2.04 2.91 3 4.4 3 8h3v3h3v3h2v2l3 1c3 4.33 3 4.33 3 7h2l1-89 4-2c.06-1.22.12-2.43.18-3.68.09-1.59.17-3.17.26-4.76l.12-2.43c.33-6.02.33-6.02 1.44-7.13.14-2.76.21-5.5.25-8.27.03-1.71.06-3.42.1-5.13.04-2.71.09-5.41.13-8.12.04-2.6.09-5.21.14-7.81l.03-2.45c.08-3.99.45-6.74 2.35-10.22.29-2.76.29-2.76.34-5.9.02-.57.02-.57.09-3.45.03-1.18.05-2.37.07-3.59.04-2.34.1-4.68.16-7.02.01-.52.01-.52.05-3.15.3-2.99 1.13-5.14 2.29-7.89.3-2.11.3-2.11.38-4.17.03-.75.07-1.49.1-2.26s.06-1.53.08-2.32c.32-8.13.32-8.13 1.44-9.25.29-3.56.45-7.11.62-10.68C93 1219 93 1219 95 1216c.24-2.16.4-4.33.5-6.5.28-6.17.28-6.17 2.5-9.5.38-2.66.38-2.66.56-5.62.34-5.28.34-5.28 1.44-6.38.28-2.81.45-5.62.62-8.43.38-2.57.38-2.57 2.38-4.57.53-2.07.53-2.07.94-4.56.78-4.26 1.9-8.2 3.34-12.28.7-2.09 1.23-4.15 1.72-6.28.92-3.84 2.39-7.28 4-10.88 1.73-4.28 3.28-8.41 4-13"/><path fill="#f3701b" d="M117 1125h2c1.23 2.47 1.11 4.07 1.1 6.83-.01 1.01-.01 2.02-.01 3.07-.01.55-.01.55-.03 3.35-.01 2.37-.01 4.74-.02 7.12-.01 1.24-.02 2.49-.02 3.78-.09 17.95-.14 35.9.42 53.85l.06 2.06c.33 11.18.33 11.18 1.1 16.69.4 3.25.4 3.25-.6 5.25h2c.06.66.11 1.31.17 1.99.25 2.96.51 5.92.77 8.89.08 1.03.17 2.06.26 3.12.04.5.04.5.26 2.99.08.91.16 1.82.24 2.76.3 2.25.3 2.25 1.3 4.25.23 2.71.42 5.41.56 8.12.02.38.02.38.13 2.29.11 1.86.21 3.73.31 5.59l-2-1c-.31-2.55-.51-5-.62-7.56-.04-.71-.08-1.42-.12-2.16-.1-1.76-.18-3.52-.26-5.28h-2l-2-18h-1c-.87-35.06-1.24-69.95 0-105h-2c.06.66.12 1.32.19 2-.35 5.57-2.97 10.54-5.25 15.56-1.69 3.75-2.89 7.45-3.94 11.44-.52 1.65-1.04 3.29-1.56 4.94-.98 3.2-1.66 6.23-2 9.56-.44 3.5-.44 3.5-2.44 5.5-.38 2.57-.38 2.57-.56 5.56-.34 5.34-.34 5.34-1.44 6.44-.28 2.78-.45 5.55-.62 8.34C99 1200 99 1200 97 1203c-.24 2.16-.4 4.33-.5 6.5-.28 6.17-.28 6.17-2.5 9.5-.27 2.37-.45 4.75-.56 7.12-.34 6.78-.34 6.78-1.44 7.88-.24 3.52-.4 7.04-.52 10.57-.03.74-.07 1.49-.1 2.26-.03.68-.05 1.36-.08 2.06-.3 2.11-.3 2.11-1.3 4.49-1.15 3.03-1.29 5.43-1.34 8.66l-.09 3.45c-.05 2.38-.09 4.77-.14 7.16l-.09 3.45c-.01 1.03-.03 2.07-.05 3.14C88 1282 88 1282 87 1283.83c-1.59 3.46-1.34 7.09-1.38 10.84-.02.83-.03 1.67-.05 2.53-.05 2.66-.09 5.32-.13 7.99-.05 2.67-.09 5.34-.15 8.02-.03 1.66-.05 3.32-.08 4.99-.1 5.69-.1 5.69-1.21 6.8-.24 3.58-.4 7.16-.52 10.74-.17 3.87-.29 5.97-2.48 9.26.14-4.15.29-8.29.44-12.44l.12-3.53.12-3.46c.04-1.05.08-2.09.11-3.16.16-2.61.4-5.15.71-7.75.54-4.61.7-9.18.78-13.82.04-1.69.08-3.39.11-5.09.06-2.64.11-5.29.16-7.93.05-2.58.11-5.15.17-7.73.01-.79.03-1.59.04-2.41.13-5.57.13-5.57 1.24-6.68.24-3.49.4-6.98.52-10.48.15-3.42.38-6.24 1.48-9.51 1.33-4.01 1.38-7.81 1.5-12.01.15-5.45.67-9.82 2.5-15 .23-2.1.4-4.2.5-6.31.42-6.51 1.34-12.49 3.56-18.63 1.11-3.61 1.37-7.03 1.6-10.79C97 1186 97 1186 99 1183c.34-2.05.34-2.05.5-4.31.27-3.85 1.24-7.05 2.5-10.69.66-2.43 1.31-4.87 1.94-7.31 1.48-5.64 3.08-11.2 5.06-16.69.23-.66.47-1.32.71-2 2.11-5.8 4.53-11.48 7.29-17"/><path fill="#f36f1b" d="M463 1541h2v4c.56.21 1.11.41 1.69.62 5.29 3.15 7.79 7.56 9.31 13.38h2l3 7c-3.75-1.25-4.24-2.57-6-6v-2h-2c-.12-.64-.25-1.28-.38-1.94-.2-.68-.41-1.36-.62-2.06l-2-1-1-3-2-1c-.06 4.27-.09 8.54-.12 12.81l-.06 3.68c0 1.17-.01 2.33-.02 3.53l-.03 3.25c.23 2.73.23 2.73 2.23 5.73.29 2.39.29 2.39.34 5.19l.09 3.12c.03 1.07.05 2.15.07 3.25.25 11.81.25 11.81 1.52 17.52 1.2 5.38 1.21 10.56 1.1 16.04 0 .96-.01 1.92-.02 2.9-.03 2.33-.06 4.65-.1 6.98h2l1 31-4 2v-2l-3-1c.66-.16.66-.16 4-1-.4-12.75-.93-25.47-1.94-38.19-.07-.99-.15-1.99-.22-3.02-.6-7.13-.6-7.13-1.88-10.7-1.56-5.01-1.36-10.12-1.46-15.34-.25-12.14-.25-12.14-1.49-17.54-1.57-7.01-1.48-14.18-1.63-21.33l-.12-4.35c-.1-3.51-.18-7.02-.26-10.53"/><path fill="#f36f1a" d="M991 1955.75c3 .25 3 .25 5 2.25 1.99.34 1.99.34 4.31.5 3.6.33 6.38.98 9.69 2.5 5.23 1.94 10.53 2.98 16 4v2c.34-.01.34-.01 2.08-.07l2.73-.06c.9-.02 1.79-.04 2.71-.07 2.48.2 2.48.2 5.48 2.2 2.32.39 4.66.73 7 1v1h-15v-2l-9-1v-2h-10l-1-3h-7v-2l-11-1v-2h-7c2-2 2-2 5-2.25"/><path fill="#f3711a" d="M774 1853c.6.31 1.2.62 1.81.94C778 1855 778 1855 781 1856v2c.56.11 1.12.22 1.7.34 2.62.75 4.69 1.87 7.05 3.22.8.46 1.6.91 2.42 1.38.61.35 1.21.7 1.83 1.06v2l4 1v2l9 3v2l5 1v2l4 1v2h5c.16.33.16.33 1 2 3.06 1.6 6.18 3.02 9.31 4.46C834 1888 834 1888 835 1891l-7-2v-2c-.83-.23-1.65-.45-2.5-.69-3.57-1.33-6.41-3.01-9.57-5.09-1.92-1.22-3.88-2.24-5.93-3.22v-2c-1.07-.27-2.14-.54-3.25-.81-3.38-1.07-5.09-2-7.75-4.19l-3-1-1.38-1.44c-1.62-1.56-1.62-1.56-4.06-2.5-2.94-1.22-4.33-2.83-6.56-5.06-2.75-1.25-2.75-1.25-5-2v-2c-.83-.33-.83-.33-5-2zm-362-215h5v2c.99.16.99.16 6 1v2c.66.08 1.32.16 2 .25 3.3.82 5.95 2.13 8.94 3.71 2.31 1.16 4.65 2.1 7.06 3.04 2.11.87 4.21 1.75 6.31 2.62 1.07.45 2.14.9 3.24 1.36.4.17.4.17 2.45 1.02v2l2.88-.12c3.12.12 3.12.12 5.12 2.12 1.99.4 3.99.74 6 1v2c-5.4-1.15-10.71-2.42-16-4v-2c-.74-.13-1.47-.27-2.23-.4-8.12-1.76-15.56-5.9-22.88-9.69-4.54-2.33-9.09-4.19-13.89-5.91zm200 83c4.72 1.49 4.72 1.49 6.12 4.06l.88 1.94 3 1c1.19 2.56 1.19 2.56 2 5h3c2.44 2.25 2.44 2.25 5 5l2.12 2.12L636 1742c.58.54 1.15 1.07 1.75 1.62C639 1745 639 1745 639 1747h3c1.69 1.38 1.69 1.38 3 3v2l3 1v2h3c.16.66.16.66 1 4-2 0-2 0-3.81-1.75-.72-.74-1.45-1.48-2.19-2.25-.91-.68-1.82-1.36-2.75-2.06-.74-.64-1.49-1.28-2.25-1.94v-3c-.56-.04-1.11-.08-1.69-.12-3.45-1.31-4.98-4.08-7.31-6.88-1.33-.35-2.66-.69-4-1-1.03-1.65-2.02-3.32-3-5-1.66-1.35-3.32-2.68-5-4v-2l-3-1v-2h-2c-1.62-1.38-1.62-1.38-3-3z"/><path fill="#f3721a" d="M319 1581h3v2l4 1v2c2.33 1.21 4.5 2.17 7 3v2c.38.14.38.14 2.31.88C338 1593 338 1593 341 1595v2c.58.12 1.15.25 1.75.38 2.27.63 4.18 1.51 6.25 2.62v2l5 1v2l5 1v2h3c.17.49.17.49 1 3-3.54-1.37-6.93-2.91-10.31-4.62-.89-.45-1.77-.9-2.68-1.36-.33-.17-.33-.17-2.01-1.02v-2c-.52-.25-1.03-.49-1.56-.75-3.21-1.65-6.32-3.45-9.44-5.25v-2c-.36-.12-.36-.12-2.19-.75-3.06-1.36-5.22-3.14-7.81-5.25l-3-1v-2h-4z"/><path fill="#1c539c" d="M969.75 484.75c3.71.08 6.79.87 10.25 2.25-.33.5-.33.5-2 3h-3v2h-6l-1 3-3-1c-.63-3.37-.63-3.37-1-7 2-2 2-2 5.75-2.25"/><path fill="#d07f27" d="M1060.188 511.875c.9.02 1.8.04 2.73.05.69.03 1.37.05 2.08.07l-1 5h-2v3h-2v2h-4c-.33-1.32-.66-2.63-1-4-1.32-.33-2.64-.65-4-1 1.68-5.02 4.38-5.24 9.19-5.12"/><path fill="#f3721a" d="M251 1521c1.94.81 1.94.81 4 2l1 3h3v3h3v3h3v3h3v2h2v3h3c1.37 1.64 2.69 3.31 4 5 .91.72 1.81 1.44 2.75 2.19.74.6 1.49 1.19 2.25 1.81v2c.31.15.31.15 1.88.94 1.37.68 2.74 1.37 4.12 2.06-.17.33-.17.33-1 2-5.54-3.6-10.39-7.02-14.48-12.23-2.37-2.76-5.17-4.99-7.98-7.29L263 1535v-2h-2c-1.62-1.38-1.62-1.38-3-3v-2l-3-1v-2h-2z"/><path fill="#f3701b" d="M223 1488c4.59 1.53 6.07 5.23 8.25 9.38q.375.795.75 1.62h2c1.37 1.64 2.69 3.31 4 5l2.12 2c1.88 2 1.88 2 2.88 4.62 1.23 2.94 2.19 3.1 5 4.38 1.75 2.12 1.75 2.12 3 4l-1 2c-.5-.16-.5-.16-3-1-.12-.58-.25-1.15-.38-1.75-.93-3.35-3.1-4.9-5.62-7.25-2.81-2.62-2.81-2.62-5-5v-3c-.64-.27-1.28-.54-1.94-.81C232 1501 232 1501 231 1498h-3c-3.88-6.62-3.88-6.62-5-10"/><path fill="#f3721a" d="M841 1894h5v2c.56.12 1.12.23 1.7.35 2.58.73 4.73 1.79 7.11 3.03 4.01 2.04 8.03 3.9 12.19 5.62v2c.83.16.83.16 5 1v2l-8-2v-2c-.58-.13-1.15-.26-1.75-.39-3.82-1.03-7.3-2.81-10.87-4.49l-2.36-1.06c-.37-.17-.37-.17-2.25-1.05-.67-.32-1.35-.63-2.05-.95C843 1897 843 1897 841 1894m-117-76h2v2h4v3h4l1 2 3 1v2l3 1v2c.58.12 1.15.25 1.75.38 4.55 1.26 6.94 3.31 10.25 6.62 2.25 1.25 2.25 1.25 4 2l-1 2c-4.46-2.5-8.87-4.98-13-8v-2h-3v-2c-.52-.25-1.03-.49-1.56-.75-9.16-4.7-9.16-4.7-10.44-7.25l-3-1z"/></svg>